<svg version="1.1" xmlns="http://www.w3.org/2000/svg" viewBox="0 0 1096 501.6625350765904" width="1096" height="501.6625350765904">
  <!-- svg-source:excalidraw -->
  
  <defs>
    <style>
      @font-face {
        font-family: "Virgil";
        src: url("https://excalidraw.com/Virgil.woff2");
      }
      @font-face {
        font-family: "Cascadia";
        src: url("https://excalidraw.com/Cascadia.woff2");
      }
    </style>
  </defs>
  <g stroke-linecap="round" transform="translate(773.036731322675 372.38786787002175) rotate(0 56.57468639335093 7.980450090463023)"><path d="M113.15 7.98 C113.15 8.36, 112.96 8.74, 112.57 9.12 C112.19 9.49, 111.61 9.87, 110.86 10.23 C110.1 10.59, 109.15 10.95, 108.04 11.3 C106.92 11.64, 105.62 11.98, 104.17 12.3 C102.72 12.61, 101.09 12.92, 99.33 13.21 C97.57 13.49, 95.65 13.76, 93.62 14.01 C91.59 14.26, 89.42 14.49, 87.16 14.69 C84.9 14.9, 82.52 15.08, 80.08 15.24 C77.64 15.4, 75.09 15.53, 72.51 15.64 C69.94 15.74, 67.28 15.83, 64.63 15.88 C61.97 15.93, 59.26 15.96, 56.57 15.96 C53.89 15.96, 51.18 15.93, 48.52 15.88 C45.87 15.83, 43.21 15.74, 40.64 15.64 C38.06 15.53, 35.51 15.4, 33.07 15.24 C30.63 15.08, 28.25 14.9, 25.99 14.69 C23.73 14.49, 21.55 14.26, 19.53 14.01 C17.5 13.76, 15.58 13.49, 13.82 13.21 C12.06 12.92, 10.43 12.61, 8.98 12.3 C7.53 11.98, 6.23 11.64, 5.11 11.3 C4 10.95, 3.05 10.59, 2.29 10.23 C1.54 9.87, 0.96 9.49, 0.58 9.12 C0.19 8.74, 0 8.36, 0 7.98 C0 7.6, 0.19 7.22, 0.58 6.84 C0.96 6.47, 1.54 6.1, 2.29 5.73 C3.05 5.37, 4 5.01, 5.11 4.67 C6.23 4.32, 7.53 3.98, 8.98 3.67 C10.43 3.35, 12.06 3.04, 13.82 2.75 C15.58 2.47, 17.5 2.2, 19.53 1.95 C21.55 1.7, 23.73 1.47, 25.99 1.27 C28.25 1.06, 30.63 0.88, 33.07 0.72 C35.51 0.56, 38.06 0.43, 40.64 0.32 C43.21 0.22, 45.87 0.14, 48.52 0.08 C51.18 0.03, 53.89 0, 56.57 0 C59.26 0, 61.97 0.03, 64.63 0.08 C67.28 0.14, 69.94 0.22, 72.51 0.32 C75.09 0.43, 77.64 0.56, 80.08 0.72 C82.52 0.88, 84.9 1.06, 87.16 1.27 C89.42 1.47, 91.59 1.7, 93.62 1.95 C95.65 2.2, 97.57 2.47, 99.33 2.75 C101.09 3.04, 102.72 3.35, 104.17 3.67 C105.62 3.98, 106.92 4.32, 108.04 4.67 C109.15 5.01, 110.1 5.37, 110.86 5.73 C111.61 6.1, 112.19 6.47, 112.57 6.84 C112.96 7.22, 113.05 7.79, 113.15 7.98 C113.25 8.17, 113.25 7.79, 113.15 7.98" stroke="#000000" stroke-width="1" fill="none"></path></g><g stroke-linecap="round" transform="translate(772.9315989099714 434.8017495960481) rotate(0 56.674245151880086 10.73506247976286)"><path d="M113.35 10.74 C113.35 11.24, 113.15 11.76, 112.77 12.26 C112.39 12.77, 111.81 13.27, 111.05 13.76 C110.3 14.25, 109.34 14.73, 108.23 15.19 C107.11 15.66, 105.81 16.11, 104.35 16.54 C102.9 16.97, 101.27 17.38, 99.51 17.77 C97.75 18.15, 95.82 18.51, 93.79 18.85 C91.76 19.18, 89.58 19.49, 87.31 19.77 C85.05 20.04, 82.66 20.29, 80.22 20.5 C77.77 20.71, 75.22 20.89, 72.64 21.04 C70.06 21.18, 67.4 21.29, 64.74 21.36 C62.08 21.43, 59.36 21.47, 56.67 21.47 C53.99 21.47, 51.27 21.43, 48.61 21.36 C45.95 21.29, 43.29 21.18, 40.71 21.04 C38.13 20.89, 35.58 20.71, 33.13 20.5 C30.69 20.29, 28.3 20.04, 26.03 19.77 C23.77 19.49, 21.59 19.18, 19.56 18.85 C17.53 18.51, 15.6 18.15, 13.84 17.77 C12.08 17.38, 10.45 16.97, 9 16.54 C7.54 16.11, 6.24 15.66, 5.12 15.19 C4 14.73, 3.05 14.25, 2.3 13.76 C1.54 13.27, 0.96 12.77, 0.58 12.26 C0.19 11.76, 0 11.24, 0 10.74 C0 10.23, 0.19 9.71, 0.58 9.21 C0.96 8.7, 1.54 8.2, 2.3 7.71 C3.05 7.22, 4 6.74, 5.12 6.28 C6.24 5.81, 7.54 5.36, 9 4.93 C10.45 4.5, 12.08 4.09, 13.84 3.71 C15.6 3.32, 17.53 2.96, 19.56 2.62 C21.59 2.29, 23.77 1.98, 26.03 1.7 C28.3 1.43, 30.69 1.18, 33.13 0.97 C35.58 0.76, 38.13 0.58, 40.71 0.43 C43.29 0.29, 45.95 0.18, 48.61 0.11 C51.27 0.04, 53.99 0, 56.67 0 C59.36 0, 62.08 0.04, 64.74 0.11 C67.4 0.18, 70.06 0.29, 72.64 0.43 C75.22 0.58, 77.77 0.76, 80.22 0.97 C82.66 1.18, 85.05 1.43, 87.31 1.7 C89.58 1.98, 91.76 2.29, 93.79 2.62 C95.82 2.96, 97.75 3.32, 99.51 3.71 C101.27 4.09, 102.9 4.5, 104.35 4.93 C105.81 5.36, 107.11 5.81, 108.23 6.28 C109.34 6.74, 110.3 7.22, 111.05 7.71 C111.81 8.2, 112.39 8.7, 112.77 9.21 C113.15 9.71, 113.25 10.48, 113.35 10.74 C113.44 10.99, 113.44 10.48, 113.35 10.74" stroke="#000000" stroke-width="1" fill="none"></path></g><g stroke-linecap="round" transform="translate(774.474778599651 427.44858840131144) rotate(0 55.210266078079144 7.117556382101554)"><path d="M0 0 L110.42 0 L110.42 14.24 L0 14.24" stroke="none" stroke-width="0" fill="#fff"></path><path d="M0 0 C42.18 0, 84.35 0, 110.42 0 M0 0 C31.54 0, 63.08 0, 110.42 0 M110.42 0 C110.42 4.97, 110.42 9.95, 110.42 14.24 M110.42 0 C110.42 5.48, 110.42 10.97, 110.42 14.24 M110.42 14.24 C78.38 14.24, 46.33 14.24, 0 14.24 M110.42 14.24 C71.31 14.24, 32.19 14.24, 0 14.24 M0 14.24 C0 9.68, 0 5.13, 0 0 M0 14.24 C0 9.8, 0 5.37, 0 0" stroke="#ffff" stroke-width="4" fill="none"></path></g><g stroke-linecap="round"><g transform="translate(886.1011698012551 380.2186985832617) rotate(0 0.1820642851419052 32.6332192880825)"><path d="M0 0 C0.06 10.88, 0.3 54.39, 0.36 65.27 M0 0 C0.06 10.88, 0.3 54.39, 0.36 65.27" stroke="#000000" stroke-width="1" fill="none"></path></g></g><g stroke-linecap="round"><g transform="translate(773.166101460878 380.6889309116797) rotate(0 -0.10124619511441324 32.90051358129159)"><path d="M0 0 C-0.03 10.97, -0.17 54.83, -0.2 65.8 M0 0 C-0.03 10.97, -0.17 54.83, -0.2 65.8" stroke="#000000" stroke-width="1" fill="none"></path></g></g><g transform="translate(784.75 401.72812544442615) rotate(0 37.5 13)"><text x="0" y="18" font-family="Virgil, Segoe UI Emoji" font-size="20px" fill="#000000" text-anchor="start" style="white-space: pre;" direction="ltr">registry</text></g><g stroke-linecap="round" transform="translate(807.3713923348828 168.78612210165005) rotate(0 46.45809409606841 6.553399141339014)"><path d="M92.92 6.55 C92.92 6.9, 92.72 7.24, 92.34 7.58 C91.97 7.92, 91.39 8.25, 90.64 8.58 C89.89 8.9, 88.95 9.22, 87.85 9.53 C86.75 9.83, 85.47 10.13, 84.04 10.41 C82.62 10.68, 81.02 10.95, 79.31 11.19 C77.6 11.43, 75.73 11.65, 73.77 11.86 C71.81 12.06, 69.71 12.24, 67.55 12.39 C65.39 12.55, 63.12 12.68, 60.81 12.79 C58.51 12.89, 56.12 12.97, 53.73 13.03 C51.33 13.08, 48.88 13.11, 46.46 13.11 C44.04 13.11, 41.58 13.08, 39.19 13.03 C36.8 12.97, 34.41 12.89, 32.1 12.79 C29.8 12.68, 27.53 12.55, 25.37 12.39 C23.21 12.24, 21.11 12.06, 19.15 11.86 C17.19 11.65, 15.32 11.43, 13.61 11.19 C11.89 10.95, 10.3 10.68, 8.87 10.41 C7.45 10.13, 6.16 9.83, 5.06 9.53 C3.96 9.22, 3.02 8.9, 2.27 8.58 C1.53 8.25, 0.95 7.92, 0.57 7.58 C0.19 7.24, 0 6.9, 0 6.55 C0 6.21, 0.19 5.87, 0.57 5.53 C0.95 5.19, 1.53 4.85, 2.27 4.53 C3.02 4.2, 3.96 3.88, 5.06 3.58 C6.16 3.27, 7.45 2.98, 8.87 2.7 C10.3 2.42, 11.89 2.16, 13.61 1.92 C15.32 1.68, 17.19 1.45, 19.15 1.25 C21.11 1.05, 23.21 0.87, 25.37 0.71 C27.53 0.56, 29.8 0.43, 32.1 0.32 C34.41 0.22, 36.8 0.13, 39.19 0.08 C41.58 0.03, 44.04 0, 46.46 0 C48.88 0, 51.33 0.03, 53.73 0.08 C56.12 0.13, 58.51 0.22, 60.81 0.32 C63.12 0.43, 65.39 0.56, 67.55 0.71 C69.71 0.87, 71.81 1.05, 73.77 1.25 C75.73 1.45, 77.6 1.68, 79.31 1.92 C81.02 2.16, 82.62 2.42, 84.04 2.7 C85.47 2.98, 86.75 3.27, 87.85 3.58 C88.95 3.88, 89.89 4.2, 90.64 4.53 C91.39 4.85, 91.97 5.19, 92.34 5.53 C92.72 5.87, 92.82 6.38, 92.92 6.55 C93.01 6.72, 93.01 6.38, 92.92 6.55" stroke="#000000" stroke-width="1" fill="none"></path></g><g stroke-linecap="round" transform="translate(807.285059527168 220.03925623249) rotate(0 46.539849921274026 8.815436277356213)"><path d="M93.08 8.82 C93.08 9.28, 92.89 9.74, 92.51 10.19 C92.13 10.65, 91.55 11.1, 90.8 11.54 C90.05 11.98, 89.11 12.41, 88.01 12.82 C86.91 13.23, 85.62 13.63, 84.19 14 C82.76 14.37, 81.16 14.72, 79.45 15.05 C77.73 15.37, 75.86 15.68, 73.9 15.95 C71.93 16.22, 69.83 16.46, 67.67 16.67 C65.51 16.88, 63.23 17.06, 60.92 17.2 C58.61 17.34, 56.22 17.45, 53.82 17.52 C51.42 17.59, 48.97 17.63, 46.54 17.63 C44.11 17.63, 41.66 17.59, 39.26 17.52 C36.86 17.45, 34.47 17.34, 32.16 17.2 C29.85 17.06, 27.57 16.88, 25.41 16.67 C23.25 16.46, 21.15 16.22, 19.18 15.95 C17.22 15.68, 15.35 15.37, 13.63 15.05 C11.92 14.72, 10.31 14.37, 8.89 14 C7.46 13.63, 6.17 13.23, 5.07 12.82 C3.97 12.41, 3.03 11.98, 2.28 11.54 C1.53 11.1, 0.95 10.65, 0.57 10.19 C0.19 9.74, 0 9.28, 0 8.82 C0 8.36, 0.19 7.89, 0.57 7.44 C0.95 6.98, 1.53 6.53, 2.28 6.09 C3.03 5.65, 3.97 5.22, 5.07 4.81 C6.17 4.4, 7.46 4.01, 8.89 3.63 C10.31 3.26, 11.92 2.91, 13.63 2.58 C15.35 2.26, 17.22 1.95, 19.18 1.68 C21.15 1.41, 23.25 1.17, 25.41 0.96 C27.57 0.75, 29.85 0.57, 32.16 0.43 C34.47 0.29, 36.86 0.18, 39.26 0.11 C41.66 0.04, 44.11 0, 46.54 0 C48.97 0, 51.42 0.04, 53.82 0.11 C56.22 0.18, 58.61 0.29, 60.92 0.43 C63.23 0.57, 65.51 0.75, 67.67 0.96 C69.83 1.17, 71.93 1.41, 73.9 1.68 C75.86 1.95, 77.73 2.26, 79.45 2.58 C81.16 2.91, 82.76 3.26, 84.19 3.63 C85.62 4.01, 86.91 4.4, 88.01 4.81 C89.11 5.22, 90.05 5.65, 90.8 6.09 C91.55 6.53, 92.13 6.98, 92.51 7.44 C92.89 7.89, 92.98 8.59, 93.08 8.82 C93.18 9.05, 93.18 8.59, 93.08 8.82" stroke="#000000" stroke-width="1" fill="none"></path></g><g stroke-linecap="round" transform="translate(808.5522903648575 214.000975219079) rotate(0 45.337657175698155 5.84480666555865)"><path d="M0 0 L90.68 0 L90.68 11.69 L0 11.69" stroke="none" stroke-width="0" fill="#fff"></path><path d="M0 0 C18.67 0, 37.35 0, 90.68 0 M0 0 C27.54 0, 55.09 0, 90.68 0 M90.68 0 C90.68 2.6, 90.68 5.19, 90.68 11.69 M90.68 0 C90.68 4.1, 90.68 8.21, 90.68 11.69 M90.68 11.69 C71.11 11.69, 51.55 11.69, 0 11.69 M90.68 11.69 C68.9 11.69, 47.12 11.69, 0 11.69 M0 11.69 C0 7.21, 0 2.73, 0 0 M0 11.69 C0 7.12, 0 2.55, 0 0" stroke="#ffff" stroke-width="4" fill="none"></path></g><g stroke-linecap="round"><g transform="translate(900.2178340320722 175.21665655652282) rotate(0 0.14950784935592765 26.797800730214135)"><path d="M0 0 C0.05 8.93, 0.25 44.66, 0.3 53.6 M0 0 C0.05 8.93, 0.25 44.66, 0.3 53.6" stroke="#000000" stroke-width="1" fill="none"></path></g></g><g stroke-linecap="round"><g transform="translate(807.4776287179195 175.60280271398915) rotate(0 -0.08314151715819662 27.017297897885754)"><path d="M0 0 C-0.03 9.01, -0.14 45.03, -0.17 54.03 M0 0 C-0.03 9.01, -0.14 45.03, -0.17 54.03" stroke="#000000" stroke-width="1" fill="none"></path></g></g><g transform="translate(837.75 183.72812544442615) rotate(0 22.5 26)"><text x="0" y="18" font-family="Virgil, Segoe UI Emoji" font-size="20px" fill="#000000" text-anchor="start" style="white-space: pre;" direction="ltr">local</text><text x="0" y="44" font-family="Virgil, Segoe UI Emoji" font-size="20px" fill="#000000" text-anchor="start" style="white-space: pre;" direction="ltr">disk</text></g><g stroke-linecap="round" transform="translate(628.75 11.728125444426155) rotate(0 96 31)"><path d="M1.91 -1.32 C37.61 -1.25, 78.88 0.53, 192.02 -0.79 M0.34 0.46 C44.13 -1.49, 89.2 -2.67, 191.28 -0.82 M190.05 -0.51 C192.3 23.94, 193.54 47.71, 190.96 62.73 M192.04 -0.87 C191.12 13.38, 192.55 26.21, 192.1 61.85 M191.02 62.87 C134.67 59.62, 72.31 62.36, -0.2 61.96 M192.5 62.79 C129.76 62.59, 67.27 63.06, 0.56 61.96 M0.29 62.4 C1.88 37.51, 0.42 17.24, 0.79 1.4 M-0.41 61.37 C0.13 39.11, -0.28 16.45, -0.05 -0.3" stroke="#000000" stroke-width="1" fill="none"></path></g><g transform="translate(633.75 16.728125444426155) rotate(0 91 26)"><text x="91" y="18" font-family="Virgil, Segoe UI Emoji" font-size="20px" fill="#000000" text-anchor="middle" style="white-space: pre;" direction="ltr">cosign</text><text x="91" y="44" font-family="Virgil, Segoe UI Emoji" font-size="20px" fill="#000000" text-anchor="middle" style="white-space: pre;" direction="ltr">sign</text></g><g stroke-linecap="round"><g transform="translate(777.5753653597212 75.01285202854228) rotate(0 37.54116012260306 44.31084374622854)"><path d="M0.57 -0.07 C13.14 14.57, 63.14 73.73, 75.67 88.68 M-0.59 -1.15 C11.82 13.55, 62.21 74.41, 74.84 89.77" stroke="#5c940d" stroke-width="1" fill="none"></path></g><g transform="translate(777.5753653597212 75.01285202854228) rotate(0 37.54116012260306 44.31084374622854)"><path d="M48.86 74.93 C55.99 79.9, 65.91 82.33, 73.27 91.37 M49.91 74.27 C55.85 77.72, 62.16 82.25, 74.23 90.49" stroke="#5c940d" stroke-width="1" fill="none"></path></g><g transform="translate(777.5753653597212 75.01285202854228) rotate(0 37.54116012260306 44.31084374622854)"><path d="M64.69 61.86 C66.8 71.12, 71.62 77.77, 73.27 91.37 M65.73 61.2 C67.82 67.88, 70.19 75.66, 74.23 90.49" stroke="#5c940d" stroke-width="1" fill="none"></path></g></g><g transform="translate(787.75 81.22812544442615) rotate(0 27.5 31.5)"><text x="0" y="15" font-family="Virgil, Segoe UI Emoji" font-size="16px" fill="#495057" text-anchor="start" style="white-space: pre;" direction="ltr">read</text><text x="0" y="36" font-family="Virgil, Segoe UI Emoji" font-size="16px" fill="#495057" text-anchor="start" style="white-space: pre;" direction="ltr">private</text><text x="0" y="57" font-family="Virgil, Segoe UI Emoji" font-size="16px" fill="#495057" text-anchor="start" style="white-space: pre;" direction="ltr">key</text></g><g stroke-linecap="round" transform="translate(847.75 11.728125444426155) rotate(0 96 31)"><path d="M0.36 0.84 C73.97 0.67, 147.33 0.22, 193.29 -1.28 M0.1 -0.47 C68.03 -1.07, 135.68 -1.17, 191.74 -0.51 M192.51 1.15 C192.32 22.03, 191.85 42.98, 190.52 61.74 M191.62 0.45 C190.47 20.97, 191.92 42.8, 192.92 62.93 M192.24 61.28 C142.72 62.87, 96.6 60.76, -0.41 63.63 M191.05 61.09 C132.41 63.71, 72.31 63.47, -0.88 61.6 M0.71 63.29 C1.46 45.91, -1.41 29.68, 0.7 -1.27 M-0.02 62.63 C0.09 46.91, -0.74 32.99, -0.85 -0.66" stroke="#000000" stroke-width="1" fill="none"></path></g><g transform="translate(852.75 16.728125444426155) rotate(0 91 26)"><text x="91" y="18" font-family="Virgil, Segoe UI Emoji" font-size="20px" fill="#000000" text-anchor="middle" style="white-space: pre;" direction="ltr">cosign</text><text x="91" y="44" font-family="Virgil, Segoe UI Emoji" font-size="20px" fill="#000000" text-anchor="middle" style="white-space: pre;" direction="ltr">verify</text></g><g stroke-linecap="round"><g transform="translate(761.3195047173692 76.72812544442615) rotate(0 32.442034631026445 146.04991502520662)"><path d="M-0.24 0.99 C11.01 49.44, 55.56 241.8, 66.71 290.07 M-1.82 0.47 C9.43 49.17, 54.94 243.62, 66.31 291.63" stroke="#e67700" stroke-width="2" fill="none"></path></g><g transform="translate(761.3195047173692 76.72812544442615) rotate(0 32.442034631026445 146.04991502520662)"><path d="M51.52 268.29 C53.69 274.1, 58.41 276.69, 66.41 290.49 M49.65 267.34 C55.12 272.81, 58.16 279.17, 65.93 291.87" stroke="#e67700" stroke-width="2" fill="none"></path></g><g transform="translate(761.3195047173692 76.72812544442615) rotate(0 32.442034631026445 146.04991502520662)"><path d="M71.5 263.6 C68.96 270.47, 68.99 274.15, 66.41 290.49 M69.63 262.64 C69.83 269.22, 67.61 276.82, 65.93 291.87" stroke="#e67700" stroke-width="2" fill="none"></path></g></g><g transform="translate(752.75 242.72812544442615) rotate(0 45 39)"><text x="0" y="18" font-family="Virgil, Segoe UI Emoji" font-size="20px" fill="#000000" text-anchor="start" style="white-space: pre;" direction="ltr">append </text><text x="0" y="44" font-family="Virgil, Segoe UI Emoji" font-size="20px" fill="#000000" text-anchor="start" style="white-space: pre;" direction="ltr">signature</text><text x="0" y="70" font-family="Virgil, Segoe UI Emoji" font-size="20px" fill="#000000" text-anchor="start" style="white-space: pre;" direction="ltr">manifest</text></g><g stroke-linecap="round"><g transform="translate(942.1525464218644 74.72812544442615) rotate(0 -38.204206908546325 45.55973986542239)"><path d="M-0.64 -0.88 C-13.57 14.22, -64.07 75.34, -76.73 91.03 M1.22 1.27 C-11.93 16.44, -64.54 76.96, -77.63 92" stroke="#5c940d" stroke-width="1" fill="none"></path></g><g transform="translate(942.1525464218644 74.72812544442615) rotate(0 -38.204206908546325 45.55973986542239)"><path d="M-68.34 64.16 C-72.52 74.61, -72.79 85.41, -76.13 90.34 M-66.2 64.54 C-70.81 70.81, -72.05 78.57, -77.03 91.85" stroke="#5c940d" stroke-width="1" fill="none"></path></g><g transform="translate(942.1525464218644 74.72812544442615) rotate(0 -38.204206908546325 45.55973986542239)"><path d="M-52.86 77.62 C-62.8 83.03, -68.78 88.85, -76.13 90.34 M-50.71 78 C-59.22 80.81, -64.45 85.1, -77.03 91.85" stroke="#5c940d" stroke-width="1" fill="none"></path></g></g><g transform="translate(879.75 86.22812544442615) rotate(0 20.5 31.5)"><text x="0" y="15" font-family="Virgil, Segoe UI Emoji" font-size="16px" fill="#495057" text-anchor="start" style="white-space: pre;" direction="ltr">read</text><text x="0" y="36" font-family="Virgil, Segoe UI Emoji" font-size="16px" fill="#495057" text-anchor="start" style="white-space: pre;" direction="ltr">public</text><text x="0" y="57" font-family="Virgil, Segoe UI Emoji" font-size="16px" fill="#495057" text-anchor="start" style="white-space: pre;" direction="ltr">key</text></g><g stroke-linecap="round"><g transform="translate(947.394186345321 79.72812544442621) rotate(0 -49.24381760620338 142.90275503692655)"><path d="M-0.69 -0.72 C-17.05 46.9, -82.58 238.76, -99.23 286.52 M1.15 1.52 C-15.19 48.7, -82.53 237.1, -99.63 284.71" stroke="#5c940d" stroke-width="1" fill="none"></path></g><g transform="translate(947.394186345321 79.72812544442621) rotate(0 -49.24381760620338 142.90275503692655)"><path d="M-100.98 256.42 C-98.57 260.55, -99.63 265.69, -100.45 282.98 M-99.22 255.01 C-99.69 263.35, -100.09 270.91, -100.34 283.73" stroke="#5c940d" stroke-width="1" fill="none"></path></g><g transform="translate(947.394186345321 79.72812544442621) rotate(0 -49.24381760620338 142.90275503692655)"><path d="M-81.66 263.34 C-83.39 265.89, -88.55 269.56, -100.45 282.98 M-79.9 261.92 C-85.76 268.36, -91.6 273.98, -100.34 283.73" stroke="#5c940d" stroke-width="1" fill="none"></path></g></g><g transform="translate(869.75 251.72812544442615) rotate(0 45 39)"><text x="0" y="18" font-family="Virgil, Segoe UI Emoji" font-size="20px" fill="#000000" text-anchor="start" style="white-space: pre;" direction="ltr">read</text><text x="0" y="44" font-family="Virgil, Segoe UI Emoji" font-size="20px" fill="#000000" text-anchor="start" style="white-space: pre;" direction="ltr">signature</text><text x="0" y="70" font-family="Virgil, Segoe UI Emoji" font-size="20px" fill="#000000" text-anchor="start" style="white-space: pre;" direction="ltr">manifest</text></g><g stroke-linecap="round" transform="translate(274.33828268191996 369.05799665722395) rotate(0 56.57468639335093 7.980450090463023)"><path d="M113.15 7.98 C113.15 8.36, 112.96 8.74, 112.57 9.12 C112.19 9.49, 111.61 9.87, 110.86 10.23 C110.1 10.59, 109.15 10.95, 108.04 11.3 C106.92 11.64, 105.62 11.98, 104.17 12.3 C102.72 12.61, 101.09 12.92, 99.33 13.21 C97.57 13.49, 95.65 13.76, 93.62 14.01 C91.59 14.26, 89.42 14.49, 87.16 14.69 C84.9 14.9, 82.52 15.08, 80.08 15.24 C77.64 15.4, 75.09 15.53, 72.51 15.64 C69.94 15.74, 67.28 15.83, 64.63 15.88 C61.97 15.93, 59.26 15.96, 56.57 15.96 C53.89 15.96, 51.18 15.93, 48.52 15.88 C45.87 15.83, 43.21 15.74, 40.64 15.64 C38.06 15.53, 35.51 15.4, 33.07 15.24 C30.63 15.08, 28.25 14.9, 25.99 14.69 C23.73 14.49, 21.55 14.26, 19.53 14.01 C17.5 13.76, 15.58 13.49, 13.82 13.21 C12.06 12.92, 10.43 12.61, 8.98 12.3 C7.53 11.98, 6.23 11.64, 5.11 11.3 C4 10.95, 3.05 10.59, 2.29 10.23 C1.54 9.87, 0.96 9.49, 0.58 9.12 C0.19 8.74, 0 8.36, 0 7.98 C0 7.6, 0.19 7.22, 0.58 6.84 C0.96 6.47, 1.54 6.1, 2.29 5.73 C3.05 5.37, 4 5.01, 5.11 4.67 C6.23 4.32, 7.53 3.98, 8.98 3.67 C10.43 3.35, 12.06 3.04, 13.82 2.75 C15.58 2.47, 17.5 2.2, 19.53 1.95 C21.55 1.7, 23.73 1.47, 25.99 1.27 C28.25 1.06, 30.63 0.88, 33.07 0.72 C35.51 0.56, 38.06 0.43, 40.64 0.32 C43.21 0.22, 45.87 0.14, 48.52 0.08 C51.18 0.03, 53.89 0, 56.57 0 C59.26 0, 61.97 0.03, 64.63 0.08 C67.28 0.14, 69.94 0.22, 72.51 0.32 C75.09 0.43, 77.64 0.56, 80.08 0.72 C82.52 0.88, 84.9 1.06, 87.16 1.27 C89.42 1.47, 91.59 1.7, 93.62 1.95 C95.65 2.2, 97.57 2.47, 99.33 2.75 C101.09 3.04, 102.72 3.35, 104.17 3.67 C105.62 3.98, 106.92 4.32, 108.04 4.67 C109.15 5.01, 110.1 5.37, 110.86 5.73 C111.61 6.1, 112.19 6.47, 112.57 6.84 C112.96 7.22, 113.05 7.79, 113.15 7.98 C113.25 8.17, 113.25 7.79, 113.15 7.98" stroke="#000000" stroke-width="1" fill="none"></path></g><g stroke-linecap="round" transform="translate(274.23315026921637 431.4718783832503) rotate(0 56.674245151880086 10.73506247976286)"><path d="M113.35 10.74 C113.35 11.24, 113.15 11.76, 112.77 12.26 C112.39 12.77, 111.81 13.27, 111.05 13.76 C110.3 14.25, 109.34 14.73, 108.23 15.19 C107.11 15.66, 105.81 16.11, 104.35 16.54 C102.9 16.97, 101.27 17.38, 99.51 17.77 C97.75 18.15, 95.82 18.51, 93.79 18.85 C91.76 19.18, 89.58 19.49, 87.31 19.77 C85.05 20.04, 82.66 20.29, 80.22 20.5 C77.77 20.71, 75.22 20.89, 72.64 21.04 C70.06 21.18, 67.4 21.29, 64.74 21.36 C62.08 21.43, 59.36 21.47, 56.67 21.47 C53.99 21.47, 51.27 21.43, 48.61 21.36 C45.95 21.29, 43.29 21.18, 40.71 21.04 C38.13 20.89, 35.58 20.71, 33.13 20.5 C30.69 20.29, 28.3 20.04, 26.03 19.77 C23.77 19.49, 21.59 19.18, 19.56 18.85 C17.53 18.51, 15.6 18.15, 13.84 17.77 C12.08 17.38, 10.45 16.97, 9 16.54 C7.54 16.11, 6.24 15.66, 5.12 15.19 C4 14.73, 3.05 14.25, 2.3 13.76 C1.54 13.27, 0.96 12.77, 0.58 12.26 C0.19 11.76, 0 11.24, 0 10.74 C0 10.23, 0.19 9.71, 0.58 9.21 C0.96 8.7, 1.54 8.2, 2.3 7.71 C3.05 7.22, 4 6.74, 5.12 6.28 C6.24 5.81, 7.54 5.36, 9 4.93 C10.45 4.5, 12.08 4.09, 13.84 3.71 C15.6 3.32, 17.53 2.96, 19.56 2.62 C21.59 2.29, 23.77 1.98, 26.03 1.7 C28.3 1.43, 30.69 1.18, 33.13 0.97 C35.58 0.76, 38.13 0.58, 40.71 0.43 C43.29 0.29, 45.95 0.18, 48.61 0.11 C51.27 0.04, 53.99 0, 56.67 0 C59.36 0, 62.08 0.04, 64.74 0.11 C67.4 0.18, 70.06 0.29, 72.64 0.43 C75.22 0.58, 77.77 0.76, 80.22 0.97 C82.66 1.18, 85.05 1.43, 87.31 1.7 C89.58 1.98, 91.76 2.29, 93.79 2.62 C95.82 2.96, 97.75 3.32, 99.51 3.71 C101.27 4.09, 102.9 4.5, 104.35 4.93 C105.81 5.36, 107.11 5.81, 108.23 6.28 C109.34 6.74, 110.3 7.22, 111.05 7.71 C111.81 8.2, 112.39 8.7, 112.77 9.21 C113.15 9.71, 113.25 10.48, 113.35 10.74 C113.44 10.99, 113.44 10.48, 113.35 10.74" stroke="#000000" stroke-width="1" fill="none"></path></g><g stroke-linecap="round" transform="translate(275.776329958896 424.11871718851364) rotate(0 55.210266078079144 7.117556382101554)"><path d="M0 0 L110.42 0 L110.42 14.24 L0 14.24" stroke="none" stroke-width="0" fill="#fff"></path><path d="M0 0 C38.16 0, 76.32 0, 110.42 0 M0 0 C43.66 0, 87.31 0, 110.42 0 M110.42 0 C110.42 3.16, 110.42 6.31, 110.42 14.24 M110.42 0 C110.42 5.05, 110.42 10.11, 110.42 14.24 M110.42 14.24 C82.8 14.24, 55.17 14.24, 0 14.24 M110.42 14.24 C66.98 14.24, 23.54 14.24, 0 14.24 M0 14.24 C0 9.27, 0 4.3, 0 0 M0 14.24 C0 9.73, 0 5.23, 0 0" stroke="#ffff" stroke-width="4" fill="none"></path></g><g stroke-linecap="round"><g transform="translate(387.40272116050005 376.8888273704639) rotate(0 0.1820642851419052 32.6332192880825)"><path d="M0 0 C0.06 10.88, 0.3 54.39, 0.36 65.27 M0 0 C0.06 10.88, 0.3 54.39, 0.36 65.27" stroke="#000000" stroke-width="1" fill="none"></path></g></g><g stroke-linecap="round"><g transform="translate(274.467652820123 377.3590596988819) rotate(0 -0.10124619511441324 32.90051358129159)"><path d="M0 0 C-0.03 10.97, -0.17 54.83, -0.2 65.8 M0 0 C-0.03 10.97, -0.17 54.83, -0.2 65.8" stroke="#000000" stroke-width="1" fill="none"></path></g></g><g transform="translate(291 402) rotate(0 43 13)"><text x="0" y="18" font-family="Virgil, Segoe UI Emoji" font-size="20px" fill="#000000" text-anchor="start" style="white-space: pre;" direction="ltr">MariaDB</text></g><g stroke-linecap="round" transform="translate(221 236) rotate(0 96 17)"><path d="M0.07 1.85 C45.57 1.03, 88.03 1.23, 190.42 0.33 M-0.55 0.49 C73.86 0.19, 148.14 0.25, 191.12 -0.53 M193.36 -0.3 C192.06 9.87, 192.39 17.82, 193.08 35.14 M191.71 -0.58 C191.15 9.67, 191.39 19.36, 191.16 34.18 M193.38 33.33 C141.75 36.88, 88.36 36.37, -0.23 33.23 M192.3 34.72 C134.59 33.24, 75.32 33.33, 0 33.1 M0.85 34.82 C0.08 20.72, -1.82 7.29, 1.13 -1.81 M0.29 33.18 C0.79 21.58, 1.11 10.45, 0.77 0.03" stroke="#000000" stroke-width="1" fill="none"></path></g><g transform="translate(226 241) rotate(0 91 12)"><text x="91" y="17" font-family="Virgil, Segoe UI Emoji" font-size="20px" fill="#000000" text-anchor="middle" style="white-space: pre;" direction="ltr">trillian log_server</text></g><g stroke-linecap="round" transform="translate(10 238) rotate(0 96 17)"><path d="M0.34 -0.47 C72.7 -1.86, 149.65 -2.6, 193.1 -1.55 M0.53 -0.35 C48.36 2.16, 95.79 1.6, 191.3 -0.07 M190.19 0.62 C192.67 11.63, 191.58 26.56, 191.83 34.08 M191.33 -0.18 C192.67 10.24, 191.86 19.84, 192.26 33.23 M193.21 34.27 C143.04 35.48, 92.48 34.71, -1.15 32.38 M192.28 34.58 C126.47 32.19, 60.76 32.95, 0.84 34.23 M-1.39 35.03 C-0.22 25.93, -1.02 18.03, 0.63 -1.93 M-0.13 34.33 C-0.14 20, -0.48 6.89, 0.89 0.03" stroke="#000000" stroke-width="1" fill="none"></path></g><g transform="translate(15 243) rotate(0 91 12)"><text x="91" y="17" font-family="Virgil, Segoe UI Emoji" font-size="20px" fill="#000000" text-anchor="middle" style="white-space: pre;" direction="ltr">trillian log_signer</text></g><g stroke-linecap="round" transform="translate(203 10) rotate(0 96 17)"><path d="M1.42 0.72 C50.59 0.51, 102.12 -1.2, 191.09 -1.82 M-0.06 0.97 C52.13 0.32, 105.52 -1.07, 192.41 -0.16 M191.82 0.03 C191.38 8.51, 193.78 14.41, 190.44 34.73 M191.95 -0.26 C191.32 8.88, 192.08 17.66, 192.99 33.96 M191.69 33.12 C143.92 34.64, 99.57 34.7, -1.38 32.27 M192.55 34.94 C147.02 34.2, 102.42 33.33, 0.71 34.6 M0.49 32.68 C1.35 21.82, 0.62 11.65, 1.52 1.12 M-0.15 33.72 C-0.01 24.52, -0.03 16.12, -0.28 -0.92" stroke="#000000" stroke-width="1" fill="none"></path></g><g transform="translate(208 15) rotate(0 91 12)"><text x="91" y="17" font-family="Virgil, Segoe UI Emoji" font-size="20px" fill="#000000" text-anchor="middle" style="white-space: pre;" direction="ltr">createtree</text></g><g stroke-linecap="round"><g transform="translate(301.6423740739647 271.11361072974546) rotate(357.9293586779396 0.7397966219298269 48.68131957395116)"><path d="M-0.29 -0.65 C-0.11 15.53, 1.22 80.5, 1.6 96.98 M1.77 1.63 C1.7 17.93, 0.51 81.67, 0.4 98.01" stroke="#e67700" stroke-width="4" fill="none"></path></g><g transform="translate(301.6423740739647 271.11361072974546) rotate(357.9293586779396 0.7397966219298269 48.68131957395116)"><path d="M-10.56 68.91 C-7.71 79.27, -2.29 88.9, -1.32 97.03 M-8.54 70.01 C-6.86 78.83, -3.95 87.92, 0.16 98.39" stroke="#e67700" stroke-width="4" fill="none"></path></g><g transform="translate(301.6423740739647 271.11361072974546) rotate(357.9293586779396 0.7397966219298269 48.68131957395116)"><path d="M9.96 69.18 C5.75 79.39, 4.13 88.93, -1.32 97.03 M11.98 70.28 C7.31 78.93, 3.88 87.94, 0.16 98.39" stroke="#e67700" stroke-width="4" fill="none"></path></g></g><g stroke-linecap="round"><g transform="translate(288.29368377620085 45) rotate(0 7.2295022341339745 95.09815682174639)"><path d="M-0.29 0.46 C1.91 32.08, 9.97 158.82, 12.4 190.54 M1.75 -0.34 C4.42 30.85, 12.69 157.16, 14.75 188.69" stroke="#e67700" stroke-width="1" fill="none"></path></g><g transform="translate(288.29368377620085 45) rotate(0 7.2295022341339745 95.09815682174639)"><path d="M3.43 160.09 C6.55 169.64, 9.75 175.53, 13.73 187.05 M2.13 161.11 C6.01 166.72, 7.2 172.98, 15.46 188.72" stroke="#e67700" stroke-width="1" fill="none"></path></g><g transform="translate(288.29368377620085 45) rotate(0 7.2295022341339745 95.09815682174639)"><path d="M23.91 158.74 C22.28 168.55, 20.73 174.76, 13.73 187.05 M22.61 159.76 C22.15 165.5, 18.99 172.04, 15.46 188.72" stroke="#e67700" stroke-width="1" fill="none"></path></g></g><g transform="translate(225 294) rotate(0 92.5 13)"><text x="0" y="18" font-family="Virgil, Segoe UI Emoji" font-size="20px" fill="#000000" text-anchor="start" style="white-space: pre;" direction="ltr">get or append logs</text></g><g transform="translate(227 131.5) rotate(0 70 10.5)"><text x="0" y="15" font-family="Virgil, Segoe UI Emoji" font-size="16px" fill="#495057" text-anchor="start" style="white-space: pre;" direction="ltr">CreateTree gRPC</text></g><g stroke-linecap="round"><g transform="translate(119.5015638206296 276.5485534969158) rotate(0 81.7966009678155 50.21463347934187)"><path d="M0.97 0.39 C28.43 17.27, 136.41 84.18, 163.57 100.88 M0.03 -0.45 C27.47 16.12, 135.64 82.65, 162.9 99.13" stroke="#e67700" stroke-width="1" fill="none"></path></g><g transform="translate(119.5015638206296 276.5485534969158) rotate(0 81.7966009678155 50.21463347934187)"><path d="M134.14 94.09 C140.66 95.63, 146.12 93.48, 162.29 99.73 M132.6 93.71 C144.75 94.67, 155.5 97.77, 162 98.79" stroke="#e67700" stroke-width="1" fill="none"></path></g><g transform="translate(119.5015638206296 276.5485534969158) rotate(0 81.7966009678155 50.21463347934187)"><path d="M144.83 76.58 C149.11 81.77, 152.4 83.19, 162.29 99.73 M143.29 76.2 C151.54 83.78, 158.26 93.47, 162 98.79" stroke="#e67700" stroke-width="1" fill="none"></path></g></g><g transform="translate(126 288.5) rotate(0 41.5 31.5)"><text x="0" y="15" font-family="Virgil, Segoe UI Emoji" font-size="16px" fill="#495057" text-anchor="start" style="white-space: pre;" direction="ltr">periodically</text><text x="0" y="36" font-family="Virgil, Segoe UI Emoji" font-size="16px" fill="#495057" text-anchor="start" style="white-space: pre;" direction="ltr">sequence</text><text x="0" y="57" font-family="Virgil, Segoe UI Emoji" font-size="16px" fill="#495057" text-anchor="start" style="white-space: pre;" direction="ltr">data</text></g><g stroke-linecap="round" transform="translate(411 10) rotate(0 96 17)"><path d="M1.49 -0.85 C58.24 -1.46, 120.91 1.23, 190.5 1.62 M0.64 0.44 C45.99 0.3, 92.38 0.56, 192.29 0.5 M190.83 -0.5 C192.38 8.05, 192.54 18.89, 192.02 32.25 M191.86 -0.34 C193.24 8.35, 192.22 16.19, 191.79 34.31 M191.41 33.62 C142.47 36.33, 93.05 34.47, 0.75 35.99 M191.12 34.67 C132.05 34.32, 73.93 34.26, 0.21 34.08 M0.39 35.68 C-0.57 24.68, 0.23 13.57, 0.74 1.55 M-0.98 33.46 C-0.1 27.27, 0.54 20.42, -0.29 -0.7" stroke="#000000" stroke-width="1" fill="none"></path></g><g transform="translate(416 15) rotate(0 91 12)"><text x="91" y="17" font-family="Virgil, Segoe UI Emoji" font-size="20px" fill="#000000" text-anchor="middle" style="white-space: pre;" direction="ltr">rekor-cli</text></g><g stroke-linecap="round" transform="translate(445.44827586206907 128) rotate(0 64.55172413793093 19.49999999999997)"><path d="M1.31 1.92 C48.05 0.97, 97.14 0.64, 127.2 -0.59 M-0.8 0.16 C43.84 0.14, 88.81 -0.79, 128.91 -0.97 M129.96 -1.41 C128.43 12.35, 127.17 27.39, 130.57 40.81 M130.1 0.22 C129.06 13.76, 128.51 28.12, 129.14 39.94 M128.51 38.65 C100.71 38.66, 69.56 39.38, 1.69 39.17 M129.57 39.34 C91.12 37.48, 51.72 37.99, 0.05 39.99 M1.23 39.85 C1.49 27.26, -0.42 14.25, 0.23 1.16 M-0.38 39.83 C0.5 24.04, -1.08 7.08, 0.54 -0.97" stroke="#000000" stroke-width="1" fill="none"></path></g><g transform="translate(450.44827586206907 135.5) rotate(0 59.55172413793093 12)"><text x="59.55172413793096" y="17" font-family="Virgil, Segoe UI Emoji" font-size="20px" fill="#000000" text-anchor="middle" style="white-space: pre;" direction="ltr">rekor-server</text></g><g stroke-linecap="round"><g transform="translate(502.34788625240526 50.942300810892164) rotate(359.60641384184055 0.0008396345473329347 36.884695491479164)"><path d="M0.02 0.99 C0.07 12.8, -0.8 59.86, -0.66 71.86 M-1.43 0.46 C-0.95 12.38, 1.15 61.52, 1.43 73.31" stroke="#e67700" stroke-width="1" fill="none"></path></g><g transform="translate(502.34788625240526 50.942300810892164) rotate(359.60641384184055 0.0008396345473329347 36.884695491479164)"><path d="M-8.15 43.53 C-7.41 52.12, -3.02 59.42, 3.29 72.42 M-8.85 46.08 C-4.98 55.41, -0.88 64.85, 1.39 73.11" stroke="#e67700" stroke-width="1" fill="none"></path></g><g transform="translate(502.34788625240526 50.942300810892164) rotate(359.60641384184055 0.0008396345473329347 36.884695491479164)"><path d="M12.36 42.81 C8.6 51.57, 8.5 59.02, 3.29 72.42 M11.66 45.37 C8.14 54.82, 4.86 64.51, 1.39 73.11" stroke="#e67700" stroke-width="1" fill="none"></path></g></g><g stroke-linecap="round"><g transform="translate(517.7538313761372 174) rotate(0 -51.7696396866171 38.12420550540699)"><path d="M-0.61 -1.11 C-17.93 11.9, -87.71 64.12, -104.81 77.36 M1.27 0.92 C-15.61 13.61, -85.15 62.73, -102.65 75.34" stroke="#e67700" stroke-width="1" fill="none"></path></g><g transform="translate(517.7538313761372 174) rotate(0 -51.7696396866171 38.12420550540699)"><path d="M-87.51 48.86 C-89.3 56.97, -91.52 61.47, -103.62 73.49 M-85.32 49.82 C-88.39 55.46, -93.97 62.44, -102.17 75.9" stroke="#e67700" stroke-width="1" fill="none"></path></g><g transform="translate(517.7538313761372 174) rotate(0 -51.7696396866171 38.12420550540699)"><path d="M-75.59 65.56 C-79.96 69.86, -84.87 70.61, -103.62 73.49 M-73.4 66.53 C-79.22 68.36, -87.48 71.58, -102.17 75.9" stroke="#e67700" stroke-width="1" fill="none"></path></g></g><g transform="translate(411 61.5) rotate(0 65.5 10.5)"><text x="0" y="15" font-family="Virgil, Segoe UI Emoji" font-size="16px" fill="#000000" text-anchor="start" style="white-space: pre;" direction="ltr">      REST API</text></g><g transform="translate(441 184) rotate(0 39.5 21)"><text x="0" y="15" font-family="Virgil, Segoe UI Emoji" font-size="16px" fill="#000000" text-anchor="start" style="white-space: pre;" direction="ltr">software</text><text x="0" y="36" font-family="Virgil, Segoe UI Emoji" font-size="16px" fill="#000000" text-anchor="start" style="white-space: pre;" direction="ltr">metadata</text></g><g stroke-linecap="round"><g transform="translate(724 87) rotate(0 -72.60782381652575 25.109239549006077)"><path d="M0.51 -0.25 C-10.45 6.71, -40.22 33.39, -64.57 41.91 C-88.92 50.42, -131.83 49.28, -145.57 50.82 M-0.68 -1.43 C-11.95 5.2, -41.64 31.41, -65.81 40.26 C-89.99 49.11, -132.21 49.7, -145.73 51.65" stroke="#e67700" stroke-width="4" fill="none"></path></g><g transform="translate(724 87) rotate(0 -72.60782381652575 25.109239549006077)"><path d="M-118.97 38 C-127.89 46.08, -141.83 48.71, -146.72 49.8 M-118.78 38.54 C-128.69 43.86, -137.77 48.02, -145.65 52.3" stroke="#e67700" stroke-width="4" fill="none"></path></g><g transform="translate(724 87) rotate(0 -72.60782381652575 25.109239549006077)"><path d="M-117.16 58.44 C-126.83 58.36, -141.49 52.82, -146.72 49.8 M-116.98 58.98 C-127.4 56.87, -137.13 53.6, -145.65 52.3" stroke="#e67700" stroke-width="4" fill="none"></path></g></g><g transform="translate(637 97) rotate(0 49 39)"><text x="0" y="18" font-family="Virgil, Segoe UI Emoji" font-size="20px" fill="#000000" text-anchor="start" style="white-space: pre;" direction="ltr">record</text><text x="0" y="44" font-family="Virgil, Segoe UI Emoji" font-size="20px" fill="#000000" text-anchor="start" style="white-space: pre;" direction="ltr">metadata</text><text x="0" y="70" font-family="Virgil, Segoe UI Emoji" font-size="20px" fill="#000000" text-anchor="start" style="white-space: pre;" direction="ltr"></text></g><g stroke-linecap="round"><g transform="translate(956 79) rotate(0 -154.92933842667208 205.85519945453956)"><path d="M0.56 -0.95 C11.29 59.17, 109.86 296.98, 65.44 360.89 C21.01 424.8, -190.63 427.31, -265.97 382.52 C-341.3 337.73, -366.64 140.67, -386.57 92.16 M-0.6 1.16 C9.82 60.95, 108.46 296.02, 64.19 359.23 C19.93 422.45, -191.05 425.33, -266.19 380.45 C-341.33 335.58, -366.53 138.08, -386.63 89.97" stroke="#5c940d" stroke-width="4" fill="none"></path></g><g transform="translate(956 79) rotate(0 -154.92933842667208 205.85519945453956)"><path d="M-370.88 113.51 C-374.61 106.69, -382 94.41, -385.46 90.66 M-369.23 114.72 C-374.27 107.55, -379.92 100.39, -386.97 89.3" stroke="#5c940d" stroke-width="4" fill="none"></path></g><g transform="translate(956 79) rotate(0 -154.92933842667208 205.85519945453956)"><path d="M-390.67 118.93 C-386.68 109.9, -386.33 95.5, -385.46 90.66 M-389.02 120.15 C-388.23 111.22, -387.99 102.45, -386.97 89.3" stroke="#5c940d" stroke-width="4" fill="none"></path></g></g><g transform="translate(987 354) rotate(0 49.5 26)"><text x="0" y="18" font-family="Virgil, Segoe UI Emoji" font-size="20px" fill="#000000" text-anchor="start" style="white-space: pre;" direction="ltr">verify</text><text x="0" y="44" font-family="Virgil, Segoe UI Emoji" font-size="20px" fill="#000000" text-anchor="start" style="white-space: pre;" direction="ltr">metadata</text></g></svg>