<svg version="1.1" xmlns="http://www.w3.org/2000/svg" viewBox="0 0 732.5 484.5437491111477" width="732.5" height="484.5437491111477">
  <!-- svg-source:excalidraw -->
  
  <defs>
    <style>
      @font-face {
        font-family: "Virgil";
        src: url("https://excalidraw.com/Virgil.woff2");
      }
      @font-face {
        font-family: "Cascadia";
        src: url("https://excalidraw.com/Cascadia.woff2");
      }
    </style>
  </defs>
  <rect x="0" y="0" width="732.5" height="484.5437491111477" fill="#ffffff"></rect><g stroke-linecap="round" transform="translate(113.5 10) rotate(0 100 32.5)"><path d="M0.35 1.11 C41.47 -1.42, 81.57 -1.49, 201.26 -0.59 M0.15 0.06 C65.09 -1.77, 131.04 -0.77, 200.56 -0.55 M200.75 -1.06 C197.83 21.53, 201.17 43.04, 200.28 65.91 M199.32 0.27 C199.79 16.33, 200.58 31.08, 200.83 64.47 M201.31 63.22 C149.71 67.26, 101.31 65.13, -0.66 65 M199.82 64.97 C151.29 63.86, 103.48 63.79, 0.77 65.7 M-0.6 66.35 C1.36 39.54, -0.54 17.12, -1.35 -0.84 M-0.48 65.97 C-1.05 40.63, -1.16 15.76, 0.67 -0.24" stroke="#000000" stroke-width="1" fill="none"></path></g><g transform="translate(118.5 16.5) rotate(0 95 26)"><text x="95.00000000000003" y="18" font-family="Virgil, Segoe UI Emoji" font-size="20px" fill="#000000" text-anchor="middle" style="white-space: pre;" direction="ltr">cosign</text><text x="95.00000000000003" y="44" font-family="Virgil, Segoe UI Emoji" font-size="20px" fill="#000000" text-anchor="middle" style="white-space: pre;" direction="ltr">generate-key-pair</text></g><g stroke-linecap="round" transform="translate(264.786731322675 390.6597424255956) rotate(0 56.57468639335087 7.980450090463023)"><path d="M113.15 7.98 C113.15 8.36, 112.96 8.74, 112.57 9.12 C112.19 9.49, 111.61 9.87, 110.86 10.23 C110.1 10.59, 109.15 10.95, 108.04 11.3 C106.92 11.64, 105.62 11.98, 104.17 12.3 C102.72 12.61, 101.09 12.92, 99.33 13.21 C97.57 13.49, 95.65 13.76, 93.62 14.01 C91.59 14.26, 89.42 14.49, 87.16 14.69 C84.9 14.9, 82.52 15.08, 80.08 15.24 C77.64 15.4, 75.09 15.53, 72.51 15.64 C69.94 15.74, 67.28 15.83, 64.63 15.88 C61.97 15.93, 59.26 15.96, 56.57 15.96 C53.89 15.96, 51.18 15.93, 48.52 15.88 C45.87 15.83, 43.21 15.74, 40.64 15.64 C38.06 15.53, 35.51 15.4, 33.07 15.24 C30.63 15.08, 28.25 14.9, 25.99 14.69 C23.73 14.49, 21.55 14.26, 19.53 14.01 C17.5 13.76, 15.58 13.49, 13.82 13.21 C12.06 12.92, 10.43 12.61, 8.98 12.3 C7.53 11.98, 6.23 11.64, 5.11 11.3 C4 10.95, 3.05 10.59, 2.29 10.23 C1.54 9.87, 0.96 9.49, 0.58 9.12 C0.19 8.74, 0 8.36, 0 7.98 C0 7.6, 0.19 7.22, 0.58 6.84 C0.96 6.47, 1.54 6.1, 2.29 5.73 C3.05 5.37, 4 5.01, 5.11 4.67 C6.23 4.32, 7.53 3.98, 8.98 3.67 C10.43 3.35, 12.06 3.04, 13.82 2.75 C15.58 2.47, 17.5 2.2, 19.53 1.95 C21.55 1.7, 23.73 1.47, 25.99 1.27 C28.25 1.06, 30.63 0.88, 33.07 0.72 C35.51 0.56, 38.06 0.43, 40.64 0.32 C43.21 0.22, 45.87 0.14, 48.52 0.08 C51.18 0.03, 53.89 0, 56.57 0 C59.26 0, 61.97 0.03, 64.63 0.08 C67.28 0.14, 69.94 0.22, 72.51 0.32 C75.09 0.43, 77.64 0.56, 80.08 0.72 C82.52 0.88, 84.9 1.06, 87.16 1.27 C89.42 1.47, 91.59 1.7, 93.62 1.95 C95.65 2.2, 97.57 2.47, 99.33 2.75 C101.09 3.04, 102.72 3.35, 104.17 3.67 C105.62 3.98, 106.92 4.32, 108.04 4.67 C109.15 5.01, 110.1 5.37, 110.86 5.73 C111.61 6.1, 112.19 6.47, 112.57 6.84 C112.96 7.22, 113.05 7.79, 113.15 7.98 C113.25 8.17, 113.25 7.79, 113.15 7.98" stroke="#000000" stroke-width="1" fill="none"></path></g><g stroke-linecap="round" transform="translate(264.6815989099714 453.07362415162197) rotate(0 56.674245151880086 10.73506247976286)"><path d="M113.35 10.74 C113.35 11.24, 113.15 11.76, 112.77 12.26 C112.39 12.77, 111.81 13.27, 111.05 13.76 C110.3 14.25, 109.34 14.73, 108.23 15.19 C107.11 15.66, 105.81 16.11, 104.35 16.54 C102.9 16.97, 101.27 17.38, 99.51 17.77 C97.75 18.15, 95.82 18.51, 93.79 18.85 C91.76 19.18, 89.58 19.49, 87.31 19.77 C85.05 20.04, 82.66 20.29, 80.22 20.5 C77.77 20.71, 75.22 20.89, 72.64 21.04 C70.06 21.18, 67.4 21.29, 64.74 21.36 C62.08 21.43, 59.36 21.47, 56.67 21.47 C53.99 21.47, 51.27 21.43, 48.61 21.36 C45.95 21.29, 43.29 21.18, 40.71 21.04 C38.13 20.89, 35.58 20.71, 33.13 20.5 C30.69 20.29, 28.3 20.04, 26.03 19.77 C23.77 19.49, 21.59 19.18, 19.56 18.85 C17.53 18.51, 15.6 18.15, 13.84 17.77 C12.08 17.38, 10.45 16.97, 9 16.54 C7.54 16.11, 6.24 15.66, 5.12 15.19 C4 14.73, 3.05 14.25, 2.3 13.76 C1.54 13.27, 0.96 12.77, 0.58 12.26 C0.19 11.76, 0 11.24, 0 10.74 C0 10.23, 0.19 9.71, 0.58 9.21 C0.96 8.7, 1.54 8.2, 2.3 7.71 C3.05 7.22, 4 6.74, 5.12 6.28 C6.24 5.81, 7.54 5.36, 9 4.93 C10.45 4.5, 12.08 4.09, 13.84 3.71 C15.6 3.32, 17.53 2.96, 19.56 2.62 C21.59 2.29, 23.77 1.98, 26.03 1.7 C28.3 1.43, 30.69 1.18, 33.13 0.97 C35.58 0.76, 38.13 0.58, 40.71 0.43 C43.29 0.29, 45.95 0.18, 48.61 0.11 C51.27 0.04, 53.99 0, 56.67 0 C59.36 0, 62.08 0.04, 64.74 0.11 C67.4 0.18, 70.06 0.29, 72.64 0.43 C75.22 0.58, 77.77 0.76, 80.22 0.97 C82.66 1.18, 85.05 1.43, 87.31 1.7 C89.58 1.98, 91.76 2.29, 93.79 2.62 C95.82 2.96, 97.75 3.32, 99.51 3.71 C101.27 4.09, 102.9 4.5, 104.35 4.93 C105.81 5.36, 107.11 5.81, 108.23 6.28 C109.34 6.74, 110.3 7.22, 111.05 7.71 C111.81 8.2, 112.39 8.7, 112.77 9.21 C113.15 9.71, 113.25 10.48, 113.35 10.74 C113.44 10.99, 113.44 10.48, 113.35 10.74" stroke="#000000" stroke-width="1" fill="none"></path></g><g stroke-linecap="round" transform="translate(266.224778599651 445.7204629568853) rotate(0 55.210266078079144 7.117556382101554)"><path d="M0 0 L110.42 0 L110.42 14.24 L0 14.24" stroke="none" stroke-width="0" fill="#fff"></path><path d="M0 0 C42.18 0, 84.35 0, 110.42 0 M0 0 C31.54 0, 63.08 0, 110.42 0 M110.42 0 C110.42 4.97, 110.42 9.95, 110.42 14.24 M110.42 0 C110.42 5.48, 110.42 10.97, 110.42 14.24 M110.42 14.24 C78.38 14.24, 46.33 14.24, 0 14.24 M110.42 14.24 C71.31 14.24, 32.19 14.24, 0 14.24 M0 14.24 C0 9.68, 0 5.13, 0 0 M0 14.24 C0 9.8, 0 5.37, 0 0" stroke="#ffff" stroke-width="4" fill="none"></path></g><g stroke-linecap="round"><g transform="translate(377.8511698012551 398.49057313883554) rotate(0 0.18206428514184836 32.6332192880825)"><path d="M0 0 C0.06 10.88, 0.3 54.39, 0.36 65.27 M0 0 C0.06 10.88, 0.3 54.39, 0.36 65.27" stroke="#000000" stroke-width="1" fill="none"></path></g></g><g stroke-linecap="round"><g transform="translate(264.91610146087805 398.9608054672535) rotate(0 -0.1012461951143564 32.90051358129159)"><path d="M0 0 C-0.03 10.97, -0.17 54.83, -0.2 65.8 M0 0 C-0.03 10.97, -0.17 54.83, -0.2 65.8" stroke="#000000" stroke-width="1" fill="none"></path></g></g><g stroke-linecap="round" transform="translate(10 89.5) rotate(0 49.5 31)"><path d="M-0.33 0.95 C39.08 -0.03, 74.48 -1.86, 99.8 1.94 M-0.05 -0.84 C38.82 0.67, 77.72 0.37, 98.26 0.89 M99.87 -0.13 C97.09 20.4, 99.09 41.16, 98.06 60.21 M98.36 -0.29 C99.13 16.77, 100.08 31.63, 99.78 62.19 M99.56 63.31 C67.41 63.44, 39.38 62.97, 0.32 61.82 M99.15 61.68 C60.06 62.4, 21.59 60.83, 0.67 62.56 M-1.83 63.1 C0.67 48.15, 0.51 37.99, -0.96 -1.16 M0.8 61.39 C-0.08 43.18, 0.08 23.52, 0.61 0.96" stroke="#000000" stroke-width="1" fill="none"></path></g><g transform="translate(15 94.5) rotate(0 44.5 26)"><text x="44.5" y="18" font-family="Virgil, Segoe UI Emoji" font-size="20px" fill="#000000" text-anchor="middle" style="white-space: pre;" direction="ltr">ko </text><text x="44.5" y="44" font-family="Virgil, Segoe UI Emoji" font-size="20px" fill="#000000" text-anchor="middle" style="white-space: pre;" direction="ltr">publish</text></g><g transform="translate(285.5 422) rotate(0 37.5 13)"><text x="0" y="18" font-family="Virgil, Segoe UI Emoji" font-size="20px" fill="#000000" text-anchor="start" style="white-space: pre;" direction="ltr">registry</text></g><g stroke-linecap="round"><g transform="translate(74.66551691630048 155) rotate(0 100.94942661882828 114.22213020446785)"><path d="M1.01 -0.24 C34.64 38.25, 168.44 191.65, 201.82 229.86 M0.08 -1.42 C33.61 36.87, 167.81 189.7, 201.22 228.35" stroke="#e67700" stroke-width="4" fill="none"></path></g><g transform="translate(74.66551691630048 155) rotate(0 100.94942661882828 114.22213020446785)"><path d="M174.55 214.95 C184.73 218.19, 191.31 222.58, 202.35 227.56 M174.66 213.99 C184.13 218.09, 191.17 223.87, 200.38 228.44" stroke="#e67700" stroke-width="4" fill="none"></path></g><g transform="translate(74.66551691630048 155) rotate(0 100.94942661882828 114.22213020446785)"><path d="M190.01 201.46 C195.38 208.92, 197.26 217.41, 202.35 227.56 M190.13 200.5 C194.77 208.79, 196.88 218.87, 200.38 228.44" stroke="#e67700" stroke-width="4" fill="none"></path></g></g><g stroke-linecap="round" transform="translate(282.12139233488267 184.0579966572239) rotate(0 46.458094096068464 6.553399141339014)"><path d="M92.92 6.55 C92.92 6.9, 92.72 7.24, 92.34 7.58 C91.97 7.92, 91.39 8.25, 90.64 8.58 C89.89 8.9, 88.95 9.22, 87.85 9.53 C86.75 9.83, 85.47 10.13, 84.04 10.41 C82.62 10.68, 81.02 10.95, 79.31 11.19 C77.6 11.43, 75.73 11.65, 73.77 11.86 C71.81 12.06, 69.71 12.24, 67.55 12.39 C65.39 12.55, 63.12 12.68, 60.81 12.79 C58.51 12.89, 56.12 12.97, 53.73 13.03 C51.33 13.08, 48.88 13.11, 46.46 13.11 C44.04 13.11, 41.58 13.08, 39.19 13.03 C36.8 12.97, 34.41 12.89, 32.1 12.79 C29.8 12.68, 27.53 12.55, 25.37 12.39 C23.21 12.24, 21.11 12.06, 19.15 11.86 C17.19 11.65, 15.32 11.43, 13.61 11.19 C11.89 10.95, 10.3 10.68, 8.87 10.41 C7.45 10.13, 6.16 9.83, 5.06 9.53 C3.96 9.22, 3.02 8.9, 2.27 8.58 C1.53 8.25, 0.95 7.92, 0.57 7.58 C0.19 7.24, 0 6.9, 0 6.55 C0 6.21, 0.19 5.87, 0.57 5.53 C0.95 5.19, 1.53 4.85, 2.27 4.53 C3.02 4.2, 3.96 3.88, 5.06 3.58 C6.16 3.27, 7.45 2.98, 8.87 2.7 C10.3 2.42, 11.89 2.16, 13.61 1.92 C15.32 1.68, 17.19 1.45, 19.15 1.25 C21.11 1.05, 23.21 0.87, 25.37 0.71 C27.53 0.56, 29.8 0.43, 32.1 0.32 C34.41 0.22, 36.8 0.13, 39.19 0.08 C41.58 0.03, 44.04 0, 46.46 0 C48.88 0, 51.33 0.03, 53.73 0.08 C56.12 0.13, 58.51 0.22, 60.81 0.32 C63.12 0.43, 65.39 0.56, 67.55 0.71 C69.71 0.87, 71.81 1.05, 73.77 1.25 C75.73 1.45, 77.6 1.68, 79.31 1.92 C81.02 2.16, 82.62 2.42, 84.04 2.7 C85.47 2.98, 86.75 3.27, 87.85 3.58 C88.95 3.88, 89.89 4.2, 90.64 4.53 C91.39 4.85, 91.97 5.19, 92.34 5.53 C92.72 5.87, 92.82 6.38, 92.92 6.55 C93.01 6.72, 93.01 6.38, 92.92 6.55" stroke="#000000" stroke-width="1" fill="none"></path></g><g stroke-linecap="round" transform="translate(282.03505952716785 235.31113078806385) rotate(0 46.539849921274026 8.815436277356213)"><path d="M93.08 8.82 C93.08 9.28, 92.89 9.74, 92.51 10.19 C92.13 10.65, 91.55 11.1, 90.8 11.54 C90.05 11.98, 89.11 12.41, 88.01 12.82 C86.91 13.23, 85.62 13.63, 84.19 14 C82.76 14.37, 81.16 14.72, 79.45 15.05 C77.73 15.37, 75.86 15.68, 73.9 15.95 C71.93 16.22, 69.83 16.46, 67.67 16.67 C65.51 16.88, 63.23 17.06, 60.92 17.2 C58.61 17.34, 56.22 17.45, 53.82 17.52 C51.42 17.59, 48.97 17.63, 46.54 17.63 C44.11 17.63, 41.66 17.59, 39.26 17.52 C36.86 17.45, 34.47 17.34, 32.16 17.2 C29.85 17.06, 27.57 16.88, 25.41 16.67 C23.25 16.46, 21.15 16.22, 19.18 15.95 C17.22 15.68, 15.35 15.37, 13.63 15.05 C11.92 14.72, 10.31 14.37, 8.89 14 C7.46 13.63, 6.17 13.23, 5.07 12.82 C3.97 12.41, 3.03 11.98, 2.28 11.54 C1.53 11.1, 0.95 10.65, 0.57 10.19 C0.19 9.74, 0 9.28, 0 8.82 C0 8.36, 0.19 7.89, 0.57 7.44 C0.95 6.98, 1.53 6.53, 2.28 6.09 C3.03 5.65, 3.97 5.22, 5.07 4.81 C6.17 4.4, 7.46 4.01, 8.89 3.63 C10.31 3.26, 11.92 2.91, 13.63 2.58 C15.35 2.26, 17.22 1.95, 19.18 1.68 C21.15 1.41, 23.25 1.17, 25.41 0.96 C27.57 0.75, 29.85 0.57, 32.16 0.43 C34.47 0.29, 36.86 0.18, 39.26 0.11 C41.66 0.04, 44.11 0, 46.54 0 C48.97 0, 51.42 0.04, 53.82 0.11 C56.22 0.18, 58.61 0.29, 60.92 0.43 C63.23 0.57, 65.51 0.75, 67.67 0.96 C69.83 1.17, 71.93 1.41, 73.9 1.68 C75.86 1.95, 77.73 2.26, 79.45 2.58 C81.16 2.91, 82.76 3.26, 84.19 3.63 C85.62 4.01, 86.91 4.4, 88.01 4.81 C89.11 5.22, 90.05 5.65, 90.8 6.09 C91.55 6.53, 92.13 6.98, 92.51 7.44 C92.89 7.89, 92.98 8.59, 93.08 8.82 C93.18 9.05, 93.18 8.59, 93.08 8.82" stroke="#000000" stroke-width="1" fill="none"></path></g><g stroke-linecap="round" transform="translate(283.30229036485764 229.27284977465285) rotate(0 45.337657175698155 5.84480666555865)"><path d="M0 0 L90.68 0 L90.68 11.69 L0 11.69" stroke="none" stroke-width="0" fill="#fff"></path><path d="M0 0 C18.67 0, 37.35 0, 90.68 0 M0 0 C27.54 0, 55.09 0, 90.68 0 M90.68 0 C90.68 2.6, 90.68 5.19, 90.68 11.69 M90.68 0 C90.68 4.1, 90.68 8.21, 90.68 11.69 M90.68 11.69 C71.11 11.69, 51.55 11.69, 0 11.69 M90.68 11.69 C68.9 11.69, 47.12 11.69, 0 11.69 M0 11.69 C0 7.21, 0 2.73, 0 0 M0 11.69 C0 7.12, 0 2.55, 0 0" stroke="#ffff" stroke-width="4" fill="none"></path></g><g stroke-linecap="round"><g transform="translate(374.96783403207223 190.48853111209667) rotate(0 0.14950784935592765 26.797800730214135)"><path d="M0 0 C0.05 8.93, 0.25 44.66, 0.3 53.6 M0 0 C0.05 8.93, 0.25 44.66, 0.3 53.6" stroke="#000000" stroke-width="1" fill="none"></path></g></g><g stroke-linecap="round"><g transform="translate(282.2276287179195 190.874677269563) rotate(0 -0.08314151715819662 27.017297897885754)"><path d="M0 0 C-0.03 9.01, -0.14 45.03, -0.17 54.03 M0 0 C-0.03 9.01, -0.14 45.03, -0.17 54.03" stroke="#000000" stroke-width="1" fill="none"></path></g></g><g transform="translate(303.5 206) rotate(0 22.5 26)"><text x="0" y="18" font-family="Virgil, Segoe UI Emoji" font-size="20px" fill="#000000" text-anchor="start" style="white-space: pre;" direction="ltr">local</text><text x="0" y="44" font-family="Virgil, Segoe UI Emoji" font-size="20px" fill="#000000" text-anchor="start" style="white-space: pre;" direction="ltr">disk</text></g><g stroke-linecap="round"><g transform="translate(222.9699609527337 76) rotate(0 51.84299158876661 54.466343181974466)"><path d="M0.58 0.74 C17.78 18.65, 87.02 89.53, 104.26 107.23 M-0.57 0.08 C16.34 18.24, 85.22 90.83, 103.06 108.85" stroke="#e67700" stroke-width="1" fill="none"></path></g><g transform="translate(222.9699609527337 76) rotate(0 51.84299158876661 54.466343181974466)"><path d="M77.32 94.91 C86.82 99.43, 96.84 104.52, 104.35 108.62 M75.41 95.59 C86.1 100.07, 98.16 106.68, 103.42 109.21" stroke="#e67700" stroke-width="1" fill="none"></path></g><g transform="translate(222.9699609527337 76) rotate(0 51.84299158876661 54.466343181974466)"><path d="M92.08 80.65 C95.81 90.78, 100.09 101.42, 104.35 108.62 M90.17 81.33 C95.09 91.41, 101.34 103.63, 103.42 109.21" stroke="#e67700" stroke-width="1" fill="none"></path></g></g><g stroke-linecap="round" transform="translate(328.5 10) rotate(0 96 31)"><path d="M1.91 -1.32 C37.61 -1.25, 78.88 0.53, 192.02 -0.79 M0.34 0.46 C44.13 -1.49, 89.2 -2.67, 191.28 -0.82 M190.05 -0.51 C192.3 23.94, 193.54 47.71, 190.96 62.73 M192.04 -0.87 C191.12 13.38, 192.55 26.21, 192.1 61.85 M191.02 62.87 C134.67 59.62, 72.31 62.36, -0.2 61.96 M192.5 62.79 C129.76 62.59, 67.27 63.06, 0.56 61.96 M0.29 62.4 C1.88 37.51, 0.42 17.24, 0.79 1.4 M-0.41 61.37 C0.13 39.11, -0.28 16.45, -0.05 -0.3" stroke="#000000" stroke-width="1" fill="none"></path></g><g transform="translate(333.5 15) rotate(0 91 26)"><text x="91" y="18" font-family="Virgil, Segoe UI Emoji" font-size="20px" fill="#000000" text-anchor="middle" style="white-space: pre;" direction="ltr">cosign</text><text x="91" y="44" font-family="Virgil, Segoe UI Emoji" font-size="20px" fill="#000000" text-anchor="middle" style="white-space: pre;" direction="ltr">sign</text></g><g transform="translate(155.5 258) rotate(0 44 39)"><text x="0" y="18" font-family="Virgil, Segoe UI Emoji" font-size="20px" fill="#000000" text-anchor="start" style="white-space: pre;" direction="ltr">upload</text><text x="0" y="44" font-family="Virgil, Segoe UI Emoji" font-size="20px" fill="#000000" text-anchor="start" style="white-space: pre;" direction="ltr">container</text><text x="0" y="70" font-family="Virgil, Segoe UI Emoji" font-size="20px" fill="#000000" text-anchor="start" style="white-space: pre;" direction="ltr">image</text></g><g transform="translate(219.5 98) rotate(0 27 21)"><text x="0" y="15" font-family="Virgil, Segoe UI Emoji" font-size="16px" fill="#495057" text-anchor="start" style="white-space: pre;" direction="ltr">write</text><text x="0" y="36" font-family="Virgil, Segoe UI Emoji" font-size="16px" fill="#495057" text-anchor="start" style="white-space: pre;" direction="ltr">keypair</text></g><g stroke-linecap="round"><g transform="translate(424.95018322754004 73.2847265841161) rotate(0 -40.172002141183384 53.00961388500181)"><path d="M0.57 -0.07 C-12.82 17.47, -66.66 88.23, -80.08 106.08 M-0.59 -1.15 C-14.14 16.45, -67.59 88.91, -80.91 107.17" stroke="#5c940d" stroke-width="1" fill="none"></path></g><g transform="translate(424.95018322754004 73.2847265841161) rotate(0 -40.172002141183384 53.00961388500181)"><path d="M-72.6 78.74 C-76.44 88.25, -77.58 95.07, -82.48 108.76 M-71.56 78.08 C-74.06 84.86, -76.29 92.77, -81.53 107.89" stroke="#5c940d" stroke-width="1" fill="none"></path></g><g transform="translate(424.95018322754004 73.2847265841161) rotate(0 -40.172002141183384 53.00961388500181)"><path d="M-56.06 90.89 C-65.32 96.56, -71.79 99.46, -82.48 108.76 M-55.02 90.23 C-61.72 93.96, -68.06 98.85, -81.53 107.89" stroke="#5c940d" stroke-width="1" fill="none"></path></g></g><g transform="translate(366.5 93.5) rotate(0 27.5 31.5)"><text x="0" y="15" font-family="Virgil, Segoe UI Emoji" font-size="16px" fill="#495057" text-anchor="start" style="white-space: pre;" direction="ltr">read</text><text x="0" y="36" font-family="Virgil, Segoe UI Emoji" font-size="16px" fill="#495057" text-anchor="start" style="white-space: pre;" direction="ltr">private</text><text x="0" y="57" font-family="Virgil, Segoe UI Emoji" font-size="16px" fill="#495057" text-anchor="start" style="white-space: pre;" direction="ltr">key</text></g><g stroke-linecap="round" transform="translate(530.5 83) rotate(0 96 31)"><path d="M0.36 0.84 C73.97 0.67, 147.33 0.22, 193.29 -1.28 M0.1 -0.47 C68.03 -1.07, 135.68 -1.17, 191.74 -0.51 M192.51 1.15 C192.32 22.03, 191.85 42.98, 190.52 61.74 M191.62 0.45 C190.47 20.97, 191.92 42.8, 192.92 62.93 M192.24 61.28 C142.72 62.87, 96.6 60.76, -0.41 63.63 M191.05 61.09 C132.41 63.71, 72.31 63.47, -0.88 61.6 M0.71 63.29 C1.46 45.91, -1.41 29.68, 0.7 -1.27 M-0.02 62.63 C0.09 46.91, -0.74 32.99, -0.85 -0.66" stroke="#000000" stroke-width="1" fill="none"></path></g><g transform="translate(535.5 88) rotate(0 91 26)"><text x="91" y="18" font-family="Virgil, Segoe UI Emoji" font-size="20px" fill="#000000" text-anchor="middle" style="white-space: pre;" direction="ltr">cosign</text><text x="91" y="44" font-family="Virgil, Segoe UI Emoji" font-size="20px" fill="#000000" text-anchor="middle" style="white-space: pre;" direction="ltr">verify</text></g><g stroke-linecap="round"><g transform="translate(445.52361630364544 75) rotate(0 -35.317699222583485 158.91826134889342)"><path d="M-0.24 0.99 C-11.77 53.73, -58.36 263.25, -70 315.8 M-1.82 0.47 C-13.36 53.46, -58.98 265.07, -70.4 317.37" stroke="#e67700" stroke-width="2" fill="none"></path></g><g transform="translate(445.52361630364544 75) rotate(0 -35.317699222583485 158.91826134889342)"><path d="M-72.8 289.4 C-73.56 296.27, -71.75 299.94, -70.3 316.23 M-74.67 288.44 C-72.47 295.06, -72.69 302.64, -70.78 317.61" stroke="#e67700" stroke-width="2" fill="none"></path></g><g transform="translate(445.52361630364544 75) rotate(0 -35.317699222583485 158.91826134889342)"><path d="M-52.74 293.75 C-58.19 299.56, -61.09 302.21, -70.3 316.23 M-54.62 292.79 C-57.69 298.13, -63.19 304.56, -70.78 317.61" stroke="#e67700" stroke-width="2" fill="none"></path></g></g><g transform="translate(364.5 262) rotate(0 45 39)"><text x="0" y="18" font-family="Virgil, Segoe UI Emoji" font-size="20px" fill="#000000" text-anchor="start" style="white-space: pre;" direction="ltr">append </text><text x="0" y="44" font-family="Virgil, Segoe UI Emoji" font-size="20px" fill="#000000" text-anchor="start" style="white-space: pre;" direction="ltr">signature</text><text x="0" y="70" font-family="Virgil, Segoe UI Emoji" font-size="20px" fill="#000000" text-anchor="start" style="white-space: pre;" direction="ltr">manifest</text></g><g stroke-linecap="round"><g transform="translate(561.6414504949385 146) rotate(0 -93.12268011525242 42.83755460880337)"><path d="M-0.64 -0.88 C-31.88 13.31, -155.6 70.8, -186.57 85.58 M1.22 1.27 C-30.24 15.53, -156.07 72.42, -187.46 86.56" stroke="#5c940d" stroke-width="1" fill="none"></path></g><g transform="translate(561.6414504949385 146) rotate(0 -93.12268011525242 42.83755460880337)"><path d="M-167.46 65.77 C-175.62 73.56, -179.84 81.76, -185.97 84.89 M-165.32 66.15 C-172.64 70.61, -176.64 76.55, -186.87 86.41" stroke="#5c940d" stroke-width="1" fill="none"></path></g><g transform="translate(561.6414504949385 146) rotate(0 -93.12268011525242 42.83755460880337)"><path d="M-159.02 84.47 C-170.36 85.32, -177.7 86.61, -185.97 84.89 M-156.87 84.86 C-166.24 84.5, -172.42 85.62, -186.87 86.41" stroke="#5c940d" stroke-width="1" fill="none"></path></g></g><g transform="translate(474.5 151.5) rotate(0 20.5 31.5)"><text x="0" y="15" font-family="Virgil, Segoe UI Emoji" font-size="16px" fill="#495057" text-anchor="start" style="white-space: pre;" direction="ltr">read</text><text x="0" y="36" font-family="Virgil, Segoe UI Emoji" font-size="16px" fill="#495057" text-anchor="start" style="white-space: pre;" direction="ltr">public</text><text x="0" y="57" font-family="Virgil, Segoe UI Emoji" font-size="16px" fill="#495057" text-anchor="start" style="white-space: pre;" direction="ltr">key</text></g><g stroke-linecap="round"><g transform="translate(635.6824560426924 151) rotate(0 -127.08640043064759 137.43412939235566)"><path d="M-0.69 -0.72 C-43 45.07, -212.32 229.64, -254.91 275.58 M1.15 1.52 C-41.14 46.88, -212.26 227.99, -255.32 273.77" stroke="#5c940d" stroke-width="1" fill="none"></path></g><g transform="translate(635.6824560426924 151) rotate(0 -127.08640043064759 137.43412939235566)"><path d="M-244.64 247.93 C-244.79 251.47, -248.4 256.09, -256.13 272.04 M-242.88 246.52 C-246.71 254.2, -250.5 261.07, -256.03 272.8" stroke="#5c940d" stroke-width="1" fill="none"></path></g><g transform="translate(635.6824560426924 151) rotate(0 -127.08640043064759 137.43412939235566)"><path d="M-229.71 262.01 C-233.13 262.48, -239.9 264.11, -256.13 272.04 M-227.95 260.59 C-235.88 264.34, -243.88 267.25, -256.03 272.8" stroke="#5c940d" stroke-width="1" fill="none"></path></g></g><g transform="translate(488.5 257) rotate(0 45 39)"><text x="0" y="18" font-family="Virgil, Segoe UI Emoji" font-size="20px" fill="#000000" text-anchor="start" style="white-space: pre;" direction="ltr">read</text><text x="0" y="44" font-family="Virgil, Segoe UI Emoji" font-size="20px" fill="#000000" text-anchor="start" style="white-space: pre;" direction="ltr">signature</text><text x="0" y="70" font-family="Virgil, Segoe UI Emoji" font-size="20px" fill="#000000" text-anchor="start" style="white-space: pre;" direction="ltr">manifest</text></g></svg>