<svg version="1.1" xmlns="http://www.w3.org/2000/svg" viewBox="0 0 1101.5 596.883062918733" width="1101.5" height="596.883062918733">
  <!-- svg-source:excalidraw -->
  
  <defs>
    <style>
      @font-face {
        font-family: "Virgil";
        src: url("https://excalidraw.com/Virgil.woff2");
      }
      @font-face {
        font-family: "Cascadia";
        src: url("https://excalidraw.com/Cascadia.woff2");
      }
    </style>
  </defs>
  <g stroke-linecap="round" transform="translate(845.536731322675 293.6597424255956) rotate(0 56.57468639335093 7.980450090463023)"><path d="M113.15 7.98 C113.15 8.36, 112.96 8.74, 112.57 9.12 C112.19 9.49, 111.61 9.87, 110.86 10.23 C110.1 10.59, 109.15 10.95, 108.04 11.3 C106.92 11.64, 105.62 11.98, 104.17 12.3 C102.72 12.61, 101.09 12.92, 99.33 13.21 C97.57 13.49, 95.65 13.76, 93.62 14.01 C91.59 14.26, 89.42 14.49, 87.16 14.69 C84.9 14.9, 82.52 15.08, 80.08 15.24 C77.64 15.4, 75.09 15.53, 72.51 15.64 C69.94 15.74, 67.28 15.83, 64.63 15.88 C61.97 15.93, 59.26 15.96, 56.57 15.96 C53.89 15.96, 51.18 15.93, 48.52 15.88 C45.87 15.83, 43.21 15.74, 40.64 15.64 C38.06 15.53, 35.51 15.4, 33.07 15.24 C30.63 15.08, 28.25 14.9, 25.99 14.69 C23.73 14.49, 21.55 14.26, 19.53 14.01 C17.5 13.76, 15.58 13.49, 13.82 13.21 C12.06 12.92, 10.43 12.61, 8.98 12.3 C7.53 11.98, 6.23 11.64, 5.11 11.3 C4 10.95, 3.05 10.59, 2.29 10.23 C1.54 9.87, 0.96 9.49, 0.58 9.12 C0.19 8.74, 0 8.36, 0 7.98 C0 7.6, 0.19 7.22, 0.58 6.84 C0.96 6.47, 1.54 6.1, 2.29 5.73 C3.05 5.37, 4 5.01, 5.11 4.67 C6.23 4.32, 7.53 3.98, 8.98 3.67 C10.43 3.35, 12.06 3.04, 13.82 2.75 C15.58 2.47, 17.5 2.2, 19.53 1.95 C21.55 1.7, 23.73 1.47, 25.99 1.27 C28.25 1.06, 30.63 0.88, 33.07 0.72 C35.51 0.56, 38.06 0.43, 40.64 0.32 C43.21 0.22, 45.87 0.14, 48.52 0.08 C51.18 0.03, 53.89 0, 56.57 0 C59.26 0, 61.97 0.03, 64.63 0.08 C67.28 0.14, 69.94 0.22, 72.51 0.32 C75.09 0.43, 77.64 0.56, 80.08 0.72 C82.52 0.88, 84.9 1.06, 87.16 1.27 C89.42 1.47, 91.59 1.7, 93.62 1.95 C95.65 2.2, 97.57 2.47, 99.33 2.75 C101.09 3.04, 102.72 3.35, 104.17 3.67 C105.62 3.98, 106.92 4.32, 108.04 4.67 C109.15 5.01, 110.1 5.37, 110.86 5.73 C111.61 6.1, 112.19 6.47, 112.57 6.84 C112.96 7.22, 113.05 7.79, 113.15 7.98 C113.25 8.17, 113.25 7.79, 113.15 7.98" stroke="#000000" stroke-width="1" fill="none"></path></g><g stroke-linecap="round" transform="translate(845.4315989099714 356.07362415162197) rotate(0 56.674245151880086 10.73506247976286)"><path d="M113.35 10.74 C113.35 11.24, 113.15 11.76, 112.77 12.26 C112.39 12.77, 111.81 13.27, 111.05 13.76 C110.3 14.25, 109.34 14.73, 108.23 15.19 C107.11 15.66, 105.81 16.11, 104.35 16.54 C102.9 16.97, 101.27 17.38, 99.51 17.77 C97.75 18.15, 95.82 18.51, 93.79 18.85 C91.76 19.18, 89.58 19.49, 87.31 19.77 C85.05 20.04, 82.66 20.29, 80.22 20.5 C77.77 20.71, 75.22 20.89, 72.64 21.04 C70.06 21.18, 67.4 21.29, 64.74 21.36 C62.08 21.43, 59.36 21.47, 56.67 21.47 C53.99 21.47, 51.27 21.43, 48.61 21.36 C45.95 21.29, 43.29 21.18, 40.71 21.04 C38.13 20.89, 35.58 20.71, 33.13 20.5 C30.69 20.29, 28.3 20.04, 26.03 19.77 C23.77 19.49, 21.59 19.18, 19.56 18.85 C17.53 18.51, 15.6 18.15, 13.84 17.77 C12.08 17.38, 10.45 16.97, 9 16.54 C7.54 16.11, 6.24 15.66, 5.12 15.19 C4 14.73, 3.05 14.25, 2.3 13.76 C1.54 13.27, 0.96 12.77, 0.58 12.26 C0.19 11.76, 0 11.24, 0 10.74 C0 10.23, 0.19 9.71, 0.58 9.21 C0.96 8.7, 1.54 8.2, 2.3 7.71 C3.05 7.22, 4 6.74, 5.12 6.28 C6.24 5.81, 7.54 5.36, 9 4.93 C10.45 4.5, 12.08 4.09, 13.84 3.71 C15.6 3.32, 17.53 2.96, 19.56 2.62 C21.59 2.29, 23.77 1.98, 26.03 1.7 C28.3 1.43, 30.69 1.18, 33.13 0.97 C35.58 0.76, 38.13 0.58, 40.71 0.43 C43.29 0.29, 45.95 0.18, 48.61 0.11 C51.27 0.04, 53.99 0, 56.67 0 C59.36 0, 62.08 0.04, 64.74 0.11 C67.4 0.18, 70.06 0.29, 72.64 0.43 C75.22 0.58, 77.77 0.76, 80.22 0.97 C82.66 1.18, 85.05 1.43, 87.31 1.7 C89.58 1.98, 91.76 2.29, 93.79 2.62 C95.82 2.96, 97.75 3.32, 99.51 3.71 C101.27 4.09, 102.9 4.5, 104.35 4.93 C105.81 5.36, 107.11 5.81, 108.23 6.28 C109.34 6.74, 110.3 7.22, 111.05 7.71 C111.81 8.2, 112.39 8.7, 112.77 9.21 C113.15 9.71, 113.25 10.48, 113.35 10.74 C113.44 10.99, 113.44 10.48, 113.35 10.74" stroke="#000000" stroke-width="1" fill="none"></path></g><g stroke-linecap="round" transform="translate(846.974778599651 348.7204629568853) rotate(0 55.210266078079144 7.117556382101554)"><path d="M0 0 L110.42 0 L110.42 14.24 L0 14.24" stroke="none" stroke-width="0" fill="#fff"></path><path d="M0 0 C42.18 0, 84.35 0, 110.42 0 M0 0 C31.54 0, 63.08 0, 110.42 0 M110.42 0 C110.42 4.97, 110.42 9.95, 110.42 14.24 M110.42 0 C110.42 5.48, 110.42 10.97, 110.42 14.24 M110.42 14.24 C78.38 14.24, 46.33 14.24, 0 14.24 M110.42 14.24 C71.31 14.24, 32.19 14.24, 0 14.24 M0 14.24 C0 9.68, 0 5.13, 0 0 M0 14.24 C0 9.8, 0 5.37, 0 0" stroke="#ffff" stroke-width="4" fill="none"></path></g><g stroke-linecap="round"><g transform="translate(958.6011698012553 301.49057313883554) rotate(0 0.1820642851419052 32.63321928808253)"><path d="M0 0 C0.06 10.88, 0.3 54.39, 0.36 65.27 M0 0 C0.06 10.88, 0.3 54.39, 0.36 65.27" stroke="#000000" stroke-width="1" fill="none"></path></g></g><g stroke-linecap="round"><g transform="translate(845.666101460878 301.9608054672535) rotate(0 -0.10124619511441324 32.90051358129162)"><path d="M0 0 C-0.03 10.97, -0.17 54.83, -0.2 65.8 M0 0 C-0.03 10.97, -0.17 54.83, -0.2 65.8" stroke="#000000" stroke-width="1" fill="none"></path></g></g><g transform="translate(872.25 327) rotate(0 37.5 13)"><text x="0" y="18" font-family="Virgil, Segoe UI Emoji" font-size="20px" fill="#000000" text-anchor="start" style="white-space: pre;" direction="ltr">registry</text></g><g stroke-linecap="round" transform="translate(672.25 10) rotate(0 96 31)"><path d="M1.91 -1.32 C37.61 -1.25, 78.88 0.53, 192.02 -0.79 M0.34 0.46 C44.13 -1.49, 89.2 -2.67, 191.28 -0.82 M190.05 -0.51 C192.3 23.94, 193.54 47.71, 190.96 62.73 M192.04 -0.87 C191.12 13.38, 192.55 26.21, 192.1 61.85 M191.02 62.87 C134.67 59.62, 72.31 62.36, -0.2 61.96 M192.5 62.79 C129.76 62.59, 67.27 63.06, 0.56 61.96 M0.29 62.4 C1.88 37.51, 0.42 17.24, 0.79 1.4 M-0.41 61.37 C0.13 39.11, -0.28 16.45, -0.05 -0.3" stroke="#000000" stroke-width="1" fill="none"></path></g><g transform="translate(677.25 15) rotate(0 91 26)"><text x="91" y="18" font-family="Virgil, Segoe UI Emoji" font-size="20px" fill="#000000" text-anchor="middle" style="white-space: pre;" direction="ltr">cosign</text><text x="91" y="44" font-family="Virgil, Segoe UI Emoji" font-size="20px" fill="#000000" text-anchor="middle" style="white-space: pre;" direction="ltr">sign</text></g><g stroke-linecap="round" transform="translate(875.25 13) rotate(0 96 31)"><path d="M0.36 0.84 C73.97 0.67, 147.33 0.22, 193.29 -1.28 M0.1 -0.47 C68.03 -1.07, 135.68 -1.17, 191.74 -0.51 M192.51 1.15 C192.32 22.03, 191.85 42.98, 190.52 61.74 M191.62 0.45 C190.47 20.97, 191.92 42.8, 192.92 62.93 M192.24 61.28 C142.72 62.87, 96.6 60.76, -0.41 63.63 M191.05 61.09 C132.41 63.71, 72.31 63.47, -0.88 61.6 M0.71 63.29 C1.46 45.91, -1.41 29.68, 0.7 -1.27 M-0.02 62.63 C0.09 46.91, -0.74 32.99, -0.85 -0.66" stroke="#000000" stroke-width="1" fill="none"></path></g><g transform="translate(880.25 18) rotate(0 91 26)"><text x="91" y="18" font-family="Virgil, Segoe UI Emoji" font-size="20px" fill="#000000" text-anchor="middle" style="white-space: pre;" direction="ltr">cosign</text><text x="91" y="44" font-family="Virgil, Segoe UI Emoji" font-size="20px" fill="#000000" text-anchor="middle" style="white-space: pre;" direction="ltr">verify</text></g><g stroke-linecap="round"><g transform="translate(812.0188065880948 75.00000000000001) rotate(0 42.1700389400703 107.56753108080522)"><path d="M-0.24 0.99 C14.25 36.61, 71.77 177.66, 86.16 213.1 M-1.82 0.47 C12.67 36.35, 71.16 179.48, 85.77 214.67" stroke="#e67700" stroke-width="1" fill="none"></path></g><g transform="translate(812.0188065880948 75.00000000000001) rotate(0 42.1700389400703 107.56753108080522)"><path d="M67.21 194.25 C70.28 199.38, 75.88 201.28, 85.87 213.52 M65.33 193.3 C71.81 198.03, 75.84 203.62, 85.39 214.91" stroke="#e67700" stroke-width="1" fill="none"></path></g><g transform="translate(812.0188065880948 75.00000000000001) rotate(0 42.1700389400703 107.56753108080522)"><path d="M86.19 186.45 C84.76 193.37, 85.91 197.1, 85.87 213.52 M84.31 185.49 C85.77 192.15, 84.8 199.8, 85.39 214.91" stroke="#e67700" stroke-width="1" fill="none"></path></g></g><g transform="translate(816.25 126.5) rotate(0 36 31.5)"><text x="0" y="15" font-family="Virgil, Segoe UI Emoji" font-size="16px" fill="#000000" text-anchor="start" style="white-space: pre;" direction="ltr">append </text><text x="0" y="36" font-family="Virgil, Segoe UI Emoji" font-size="16px" fill="#000000" text-anchor="start" style="white-space: pre;" direction="ltr">signature</text><text x="0" y="57" font-family="Virgil, Segoe UI Emoji" font-size="16px" fill="#000000" text-anchor="start" style="white-space: pre;" direction="ltr">manifest</text></g><g stroke-linecap="round"><g transform="translate(977.0534483991369 81.00000000000006) rotate(0 -28.337138879158488 102.96773401626815)"><path d="M-0.69 -0.72 C-10.08 33.58, -47.74 172.2, -57.41 206.65 M1.15 1.52 C-8.22 35.39, -47.68 170.54, -57.82 204.84" stroke="#5c940d" stroke-width="1" fill="none"></path></g><g transform="translate(977.0534483991369 81.00000000000006) rotate(0 -28.337138879158488 102.96773401626815)"><path d="M-60.93 176.61 C-58.14 180.74, -58.83 185.86, -58.63 203.11 M-59.17 175.2 C-59.14 183.52, -59.04 191.07, -58.53 203.86" stroke="#5c940d" stroke-width="1" fill="none"></path></g><g transform="translate(977.0534483991369 81.00000000000006) rotate(0 -28.337138879158488 102.96773401626815)"><path d="M-41.23 182.39 C-42.66 185.17, -47.53 189.08, -58.63 203.11 M-39.47 180.97 C-44.95 187.71, -50.4 193.63, -58.53 203.86" stroke="#5c940d" stroke-width="1" fill="none"></path></g></g><g transform="translate(911.25 148.5) rotate(0 36 31.5)"><text x="0" y="15" font-family="Virgil, Segoe UI Emoji" font-size="16px" fill="#000000" text-anchor="start" style="white-space: pre;" direction="ltr">read</text><text x="0" y="36" font-family="Virgil, Segoe UI Emoji" font-size="16px" fill="#000000" text-anchor="start" style="white-space: pre;" direction="ltr">signature</text><text x="0" y="57" font-family="Virgil, Segoe UI Emoji" font-size="16px" fill="#000000" text-anchor="start" style="white-space: pre;" direction="ltr">manifest</text></g><g stroke-linecap="round" transform="translate(446.81883664363363 519.3298712127978) rotate(0 46.11023029005412 6.504329320202487)"><path d="M92.22 6.5 C92.22 6.84, 92.03 7.19, 91.65 7.52 C91.28 7.86, 90.71 8.19, 89.96 8.51 C89.22 8.84, 88.29 9.16, 87.19 9.46 C86.1 9.76, 84.83 10.05, 83.41 10.33 C82 10.6, 80.42 10.86, 78.72 11.1 C77.01 11.34, 75.16 11.57, 73.21 11.77 C71.27 11.97, 69.19 12.15, 67.04 12.3 C64.9 12.45, 62.65 12.59, 60.36 12.69 C58.07 12.8, 55.7 12.88, 53.32 12.93 C50.95 12.98, 48.51 13.01, 46.11 13.01 C43.71 13.01, 41.27 12.98, 38.9 12.93 C36.52 12.88, 34.15 12.8, 31.86 12.69 C29.57 12.59, 27.32 12.45, 25.18 12.3 C23.03 12.15, 20.95 11.97, 19.01 11.77 C17.06 11.57, 15.21 11.34, 13.51 11.1 C11.81 10.86, 10.22 10.6, 8.81 10.33 C7.39 10.05, 6.12 9.76, 5.03 9.46 C3.93 9.16, 3 8.84, 2.26 8.51 C1.51 8.19, 0.94 7.86, 0.57 7.52 C0.19 7.19, 0 6.84, 0 6.5 C0 6.17, 0.19 5.82, 0.57 5.49 C0.94 5.15, 1.51 4.82, 2.26 4.49 C3 4.17, 3.93 3.85, 5.03 3.55 C6.12 3.25, 7.39 2.96, 8.81 2.68 C10.22 2.41, 11.81 2.14, 13.51 1.91 C15.21 1.67, 17.06 1.44, 19.01 1.24 C20.95 1.04, 23.03 0.86, 25.18 0.71 C27.32 0.55, 29.57 0.42, 31.86 0.32 C34.15 0.21, 36.52 0.13, 38.9 0.08 C41.27 0.03, 43.71 0, 46.11 0 C48.51 0, 50.95 0.03, 53.32 0.08 C55.7 0.13, 58.07 0.21, 60.36 0.32 C62.65 0.42, 64.9 0.55, 67.04 0.71 C69.19 0.86, 71.27 1.04, 73.21 1.24 C75.16 1.44, 77.01 1.67, 78.72 1.91 C80.42 2.14, 82 2.41, 83.41 2.68 C84.83 2.96, 86.1 3.25, 87.19 3.55 C88.29 3.85, 89.22 4.17, 89.96 4.49 C90.71 4.82, 91.28 5.15, 91.65 5.49 C92.03 5.82, 92.13 6.33, 92.22 6.5 C92.32 6.67, 92.32 6.33, 92.22 6.5" stroke="#000000" stroke-width="1" fill="none"></path></g><g stroke-linecap="round" transform="translate(446.73315026921637 569.3842048719241) rotate(0 46.19137395298583 8.749429023404389)"><path d="M92.38 8.75 C92.38 9.21, 92.19 9.67, 91.81 10.12 C91.44 10.57, 90.87 11.02, 90.12 11.45 C89.38 11.89, 88.44 12.32, 87.35 12.72 C86.25 13.13, 84.98 13.52, 83.56 13.89 C82.15 14.26, 80.56 14.61, 78.85 14.94 C77.15 15.26, 75.29 15.56, 73.34 15.83 C71.39 16.1, 69.31 16.34, 67.16 16.55 C65.02 16.75, 62.76 16.93, 60.47 17.07 C58.17 17.21, 55.8 17.32, 53.42 17.39 C51.04 17.46, 48.6 17.5, 46.19 17.5 C43.78 17.5, 41.34 17.46, 38.97 17.39 C36.59 17.32, 34.21 17.21, 31.92 17.07 C29.63 16.93, 27.37 16.75, 25.22 16.55 C23.07 16.34, 20.99 16.1, 19.04 15.83 C17.09 15.56, 15.23 15.26, 13.53 14.94 C11.83 14.61, 10.24 14.26, 8.82 13.89 C7.41 13.52, 6.13 13.13, 5.03 12.72 C3.94 12.32, 3.01 11.89, 2.26 11.45 C1.52 11.02, 0.95 10.57, 0.57 10.12 C0.19 9.67, 0 9.21, 0 8.75 C0 8.29, 0.19 7.83, 0.57 7.38 C0.95 6.93, 1.52 6.48, 2.26 6.05 C3.01 5.61, 3.94 5.18, 5.03 4.78 C6.13 4.37, 7.41 3.98, 8.82 3.61 C10.24 3.24, 11.83 2.89, 13.53 2.56 C15.23 2.24, 17.09 1.94, 19.04 1.67 C20.99 1.4, 23.07 1.16, 25.22 0.95 C27.37 0.75, 29.63 0.57, 31.92 0.43 C34.21 0.29, 36.59 0.18, 38.97 0.11 C41.34 0.04, 43.78 0, 46.19 0 C48.6 0, 51.04 0.04, 53.42 0.11 C55.8 0.18, 58.17 0.29, 60.47 0.43 C62.76 0.57, 65.02 0.75, 67.16 0.95 C69.31 1.16, 71.39 1.4, 73.34 1.67 C75.29 1.94, 77.15 2.24, 78.85 2.56 C80.56 2.89, 82.15 3.24, 83.56 3.61 C84.98 3.98, 86.25 4.37, 87.35 4.78 C88.44 5.18, 89.38 5.61, 90.12 6.05 C90.87 6.48, 91.44 6.93, 91.81 7.38 C92.19 7.83, 92.29 8.52, 92.38 8.75 C92.48 8.98, 92.48 8.52, 92.38 8.75" stroke="#000000" stroke-width="1" fill="none"></path></g><g stroke-linecap="round" transform="translate(447.9908924752506 564.2061695272412) rotate(0 44.99818285399442 5.801042565208434)"><path d="M0 0 L90 0 L90 11.6 L0 11.6" stroke="none" stroke-width="0" fill="#fff"></path><path d="M0 0 C31.1 0, 62.2 0, 90 0 M0 0 C35.58 0, 71.16 0, 90 0 M90 0 C90 2.57, 90 5.15, 90 11.6 M90 0 C90 4.12, 90 8.24, 90 11.6 M90 11.6 C67.48 11.6, 44.97 11.6, 0 11.6 M90 11.6 C54.59 11.6, 19.18 11.6, 0 11.6 M0 11.6 C0 7.55, 0 3.5, 0 0 M0 11.6 C0 7.93, 0 4.27, 0 0" stroke="#ffff" stroke-width="4" fill="none"></path></g><g stroke-linecap="round"><g transform="translate(538.9700729689253 525.7122558192176) rotate(0 0.14838838092919104 26.597147105992065)"><path d="M0 0 C0.05 8.87, 0.25 44.33, 0.3 53.19 M0 0 C0.05 8.87, 0.25 44.33, 0.3 53.19" stroke="#000000" stroke-width="1" fill="none"></path></g></g><g stroke-linecap="round"><g transform="translate(446.92427756156803 526.0955106339668) rotate(0 -0.08251897925265439 26.81500074691894)"><path d="M0 0 C-0.03 8.94, -0.14 44.69, -0.17 53.63 M0 0 C-0.03 8.94, -0.14 44.69, -0.17 53.63" stroke="#000000" stroke-width="1" fill="none"></path></g></g><g transform="translate(450.5 545.2718745555738) rotate(0 43 13)"><text x="0" y="18" font-family="Virgil, Segoe UI Emoji" font-size="20px" fill="#000000" text-anchor="start" style="white-space: pre;" direction="ltr">MariaDB</text></g><g stroke-linecap="round" transform="translate(407.5 432.27187455557385) rotate(0 96 17)"><path d="M0.07 1.85 C45.57 1.03, 88.03 1.23, 190.42 0.33 M-0.55 0.49 C73.86 0.19, 148.14 0.25, 191.12 -0.53 M193.36 -0.3 C192.06 9.87, 192.39 17.82, 193.08 35.14 M191.71 -0.58 C191.15 9.67, 191.39 19.36, 191.16 34.18 M193.38 33.33 C141.75 36.88, 88.36 36.37, -0.23 33.23 M192.3 34.72 C134.59 33.24, 75.32 33.33, 0 33.1 M0.85 34.82 C0.08 20.72, -1.82 7.29, 1.13 -1.81 M0.29 33.18 C0.79 21.58, 1.11 10.45, 0.77 0.03" stroke="#000000" stroke-width="1" fill="none"></path></g><g transform="translate(412.5 437.27187455557385) rotate(0 91 12)"><text x="91" y="17" font-family="Virgil, Segoe UI Emoji" font-size="20px" fill="#000000" text-anchor="middle" style="white-space: pre;" direction="ltr">trillian log_server</text></g><g stroke-linecap="round" transform="translate(74.5 422.27187455557385) rotate(0 96 17)"><path d="M0.34 -0.47 C72.7 -1.86, 149.65 -2.6, 193.1 -1.55 M0.53 -0.35 C48.36 2.16, 95.79 1.6, 191.3 -0.07 M190.19 0.62 C192.67 11.63, 191.58 26.56, 191.83 34.08 M191.33 -0.18 C192.67 10.24, 191.86 19.84, 192.26 33.23 M193.21 34.27 C143.04 35.48, 92.48 34.71, -1.15 32.38 M192.28 34.58 C126.47 32.19, 60.76 32.95, 0.84 34.23 M-1.39 35.03 C-0.22 25.93, -1.02 18.03, 0.63 -1.93 M-0.13 34.33 C-0.14 20, -0.48 6.89, 0.89 0.03" stroke="#000000" stroke-width="1" fill="none"></path></g><g transform="translate(79.5 427.27187455557385) rotate(0 91 12)"><text x="91" y="17" font-family="Virgil, Segoe UI Emoji" font-size="20px" fill="#000000" text-anchor="middle" style="white-space: pre;" direction="ltr">trillian log_signer</text></g><g stroke-linecap="round"><g transform="translate(498.14008010115117 471.3418367975586) rotate(357.9293586779396 -1.4903418507374226 22.012692450650263)"><path d="M-0.29 -0.65 C-0.96 6.64, -3.07 36.06, -3.55 43.64 M1.77 1.63 C0.84 9.04, -3.78 37.23, -4.75 44.67" stroke="#e67700" stroke-width="1" fill="none"></path></g><g transform="translate(498.14008010115117 471.3418367975586) rotate(357.9293586779396 -1.4903418507374226 22.012692450650263)"><path d="M-10.31 21.99 C-9.31 30.13, -5.75 37.56, -6.47 43.7 M-8.28 23.1 C-8.3 29.91, -7.06 37.01, -4.99 45.06" stroke="#e67700" stroke-width="1" fill="none"></path></g><g transform="translate(498.14008010115117 471.3418367975586) rotate(357.9293586779396 -1.4903418507374226 22.012692450650263)"><path d="M4.82 24.23 C0.62 31.57, -1.01 38.22, -6.47 43.7 M6.85 25.34 C2.14 31.39, -1.29 37.8, -4.99 45.06" stroke="#e67700" stroke-width="1" fill="none"></path></g></g><g stroke-linecap="round"><g transform="translate(272.0015638206296 433.6475477129459) rotate(0 62.29660096781549 16.025089527852487)"><path d="M0.97 0.39 C21.93 5.87, 103.91 27.2, 124.57 32.5 M0.03 -0.45 C20.97 4.72, 103.14 25.67, 123.9 30.75" stroke="#e67700" stroke-width="1" fill="none"></path></g><g transform="translate(272.0015638206296 433.6475477129459) rotate(0 62.29660096781549 16.025089527852487)"><path d="M94.71 34.75 C101.34 34.44, 106.9 30.45, 123.29 31.35 M93.17 34.37 C105.41 31.92, 116.32 31.61, 123 30.42" stroke="#e67700" stroke-width="1" fill="none"></path></g><g transform="translate(272.0015638206296 433.6475477129459) rotate(0 62.29660096781549 16.025089527852487)"><path d="M99.7 14.84 C105.25 18.63, 109.79 18.69, 123.29 31.35 M98.16 14.46 C108.67 19.53, 117.7 26.72, 123 30.42" stroke="#e67700" stroke-width="1" fill="none"></path></g></g><g transform="translate(302.5 415.77187455557385) rotate(0 34 31.5)"><text x="0" y="15" font-family="Virgil, Segoe UI Emoji" font-size="16px" fill="#495057" text-anchor="start" style="white-space: pre;" direction="ltr"></text><text x="0" y="36" font-family="Virgil, Segoe UI Emoji" font-size="16px" fill="#495057" text-anchor="start" style="white-space: pre;" direction="ltr">sequence</text><text x="0" y="57" font-family="Virgil, Segoe UI Emoji" font-size="16px" fill="#495057" text-anchor="start" style="white-space: pre;" direction="ltr">data</text></g><g stroke-linecap="round" transform="translate(694.9482758620691 403.27187455557385) rotate(0 64.55172413793093 19.49999999999997)"><path d="M1.31 1.92 C48.05 0.97, 97.14 0.64, 127.2 -0.59 M-0.8 0.16 C43.84 0.14, 88.81 -0.79, 128.91 -0.97 M129.96 -1.41 C128.43 12.35, 127.17 27.39, 130.57 40.81 M130.1 0.22 C129.06 13.76, 128.51 28.12, 129.14 39.94 M128.51 38.65 C100.71 38.66, 69.56 39.38, 1.69 39.17 M129.57 39.34 C91.12 37.48, 51.72 37.99, 0.05 39.99 M1.23 39.85 C1.49 27.26, -0.42 14.25, 0.23 1.16 M-0.38 39.83 C0.5 24.04, -1.08 7.08, 0.54 -0.97" stroke="#000000" stroke-width="1" fill="none"></path></g><g transform="translate(699.9482758620691 410.77187455557385) rotate(0 59.55172413793093 12)"><text x="59.55172413793096" y="17" font-family="Virgil, Segoe UI Emoji" font-size="20px" fill="#000000" text-anchor="middle" style="white-space: pre;" direction="ltr">rekor-server</text></g><g transform="translate(992.5 251.27187455557385) rotate(0 49.5 26)"><text x="0" y="18" font-family="Virgil, Segoe UI Emoji" font-size="20px" fill="#000000" text-anchor="start" style="white-space: pre;" direction="ltr">verify</text><text x="0" y="44" font-family="Virgil, Segoe UI Emoji" font-size="20px" fill="#000000" text-anchor="start" style="white-space: pre;" direction="ltr">metadata</text></g><g stroke-linecap="round" transform="translate(558 250.77187455557385) rotate(0 96 31)"><path d="M1.71 -1.25 C76.85 -0.48, 153.53 1.77, 192.37 -0.84 M0.35 -0.09 C47.84 -0.17, 96.43 0.4, 192.14 -0.35 M192.96 1.44 C192.36 22.79, 189.85 45.63, 193.4 63.96 M191.39 -0.12 C191.4 17.9, 192 34.48, 192.56 61.1 M193.5 62.78 C141.84 63.85, 90 62.84, -1.34 63.55 M192.55 61.22 C119.25 61.22, 45.53 61.37, -0.66 61.24 M0.59 61.98 C-0.36 47.58, 0.63 34.82, 1.22 1.24 M-0.21 61.37 C-0.26 45.63, -0.25 29.7, -0.72 0.46" stroke="#000000" stroke-width="1" fill="none"></path></g><g transform="translate(563 257.27187455557385) rotate(0 91 24)"><text x="91" y="17" font-family="Virgil, Segoe UI Emoji" font-size="20px" fill="#000000" text-anchor="middle" style="white-space: pre;" direction="ltr">fulcio</text><text x="91" y="41" font-family="Virgil, Segoe UI Emoji" font-size="20px" fill="#000000" text-anchor="middle" style="white-space: pre;" direction="ltr">serve</text></g><g stroke-linecap="round" transform="translate(116 227.77187455557385) rotate(0 96 17)"><path d="M-0.75 1.4 C68.7 0.99, 134.21 1.86, 190.78 -0.24 M0.4 0.56 C40.89 0.1, 83.6 0.77, 192.75 0.39 M192.2 -1.34 C193.76 13.44, 193.62 21.99, 193.11 32.43 M192.86 -0.66 C191.47 12.64, 192.1 26.07, 192.29 33.99 M192.3 35.22 C139.98 33.58, 85.24 34.16, -0.43 32.75 M191.07 33.28 C141.38 33.96, 90.67 34.18, -0.92 33.62 M-0.64 34.34 C-1.09 21.51, 1.03 7.92, -1.83 -0.59 M0.42 34.91 C0.8 26.34, -0.57 18.43, 0.92 -0.15" stroke="#000000" stroke-width="1" fill="none"></path></g><g transform="translate(121 232.77187455557385) rotate(0 91 12)"><text x="91" y="17" font-family="Virgil, Segoe UI Emoji" font-size="20px" fill="#000000" text-anchor="middle" style="white-space: pre;" direction="ltr">libsofthsm2.so</text></g><g stroke-linecap="round" transform="translate(292.47043770590653 311.3298712127976) rotate(0 46.45809409606841 6.553399141339014)"><path d="M92.92 6.55 C92.92 6.9, 92.72 7.24, 92.34 7.58 C91.97 7.92, 91.39 8.25, 90.64 8.58 C89.89 8.9, 88.95 9.22, 87.85 9.53 C86.75 9.83, 85.47 10.13, 84.04 10.41 C82.62 10.68, 81.02 10.95, 79.31 11.19 C77.6 11.43, 75.73 11.65, 73.77 11.86 C71.81 12.06, 69.71 12.24, 67.55 12.39 C65.39 12.55, 63.12 12.68, 60.81 12.79 C58.51 12.89, 56.12 12.97, 53.73 13.03 C51.33 13.08, 48.88 13.11, 46.46 13.11 C44.04 13.11, 41.58 13.08, 39.19 13.03 C36.8 12.97, 34.41 12.89, 32.1 12.79 C29.8 12.68, 27.53 12.55, 25.37 12.39 C23.21 12.24, 21.11 12.06, 19.15 11.86 C17.19 11.65, 15.32 11.43, 13.61 11.19 C11.89 10.95, 10.3 10.68, 8.87 10.41 C7.45 10.13, 6.16 9.83, 5.06 9.53 C3.96 9.22, 3.02 8.9, 2.27 8.58 C1.53 8.25, 0.95 7.92, 0.57 7.58 C0.19 7.24, 0 6.9, 0 6.55 C0 6.21, 0.19 5.87, 0.57 5.53 C0.95 5.19, 1.53 4.85, 2.27 4.53 C3.02 4.2, 3.96 3.88, 5.06 3.58 C6.16 3.27, 7.45 2.98, 8.87 2.7 C10.3 2.42, 11.89 2.16, 13.61 1.92 C15.32 1.68, 17.19 1.45, 19.15 1.25 C21.11 1.05, 23.21 0.87, 25.37 0.71 C27.53 0.56, 29.8 0.43, 32.1 0.32 C34.41 0.22, 36.8 0.13, 39.19 0.08 C41.58 0.03, 44.04 0, 46.46 0 C48.88 0, 51.33 0.03, 53.73 0.08 C56.12 0.13, 58.51 0.22, 60.81 0.32 C63.12 0.43, 65.39 0.56, 67.55 0.71 C69.71 0.87, 71.81 1.05, 73.77 1.25 C75.73 1.45, 77.6 1.68, 79.31 1.92 C81.02 2.16, 82.62 2.42, 84.04 2.7 C85.47 2.98, 86.75 3.27, 87.85 3.58 C88.95 3.88, 89.89 4.2, 90.64 4.53 C91.39 4.85, 91.97 5.19, 92.34 5.53 C92.72 5.87, 92.82 6.38, 92.92 6.55 C93.01 6.72, 93.01 6.38, 92.92 6.55" stroke="#000000" stroke-width="1" fill="none"></path></g><g stroke-linecap="round" transform="translate(292.3841048981917 362.5830053436376) rotate(0 46.539849921274026 8.815436277356213)"><path d="M93.08 8.82 C93.08 9.28, 92.89 9.74, 92.51 10.19 C92.13 10.65, 91.55 11.1, 90.8 11.54 C90.05 11.98, 89.11 12.41, 88.01 12.82 C86.91 13.23, 85.62 13.63, 84.19 14 C82.76 14.37, 81.16 14.72, 79.45 15.05 C77.73 15.37, 75.86 15.68, 73.9 15.95 C71.93 16.22, 69.83 16.46, 67.67 16.67 C65.51 16.88, 63.23 17.06, 60.92 17.2 C58.61 17.34, 56.22 17.45, 53.82 17.52 C51.42 17.59, 48.97 17.63, 46.54 17.63 C44.11 17.63, 41.66 17.59, 39.26 17.52 C36.86 17.45, 34.47 17.34, 32.16 17.2 C29.85 17.06, 27.57 16.88, 25.41 16.67 C23.25 16.46, 21.15 16.22, 19.18 15.95 C17.22 15.68, 15.35 15.37, 13.63 15.05 C11.92 14.72, 10.31 14.37, 8.89 14 C7.46 13.63, 6.17 13.23, 5.07 12.82 C3.97 12.41, 3.03 11.98, 2.28 11.54 C1.53 11.1, 0.95 10.65, 0.57 10.19 C0.19 9.74, 0 9.28, 0 8.82 C0 8.36, 0.19 7.89, 0.57 7.44 C0.95 6.98, 1.53 6.53, 2.28 6.09 C3.03 5.65, 3.97 5.22, 5.07 4.81 C6.17 4.4, 7.46 4.01, 8.89 3.63 C10.31 3.26, 11.92 2.91, 13.63 2.58 C15.35 2.26, 17.22 1.95, 19.18 1.68 C21.15 1.41, 23.25 1.17, 25.41 0.96 C27.57 0.75, 29.85 0.57, 32.16 0.43 C34.47 0.29, 36.86 0.18, 39.26 0.11 C41.66 0.04, 44.11 0, 46.54 0 C48.97 0, 51.42 0.04, 53.82 0.11 C56.22 0.18, 58.61 0.29, 60.92 0.43 C63.23 0.57, 65.51 0.75, 67.67 0.96 C69.83 1.17, 71.93 1.41, 73.9 1.68 C75.86 1.95, 77.73 2.26, 79.45 2.58 C81.16 2.91, 82.76 3.26, 84.19 3.63 C85.62 4.01, 86.91 4.4, 88.01 4.81 C89.11 5.22, 90.05 5.65, 90.8 6.09 C91.55 6.53, 92.13 6.98, 92.51 7.44 C92.89 7.89, 92.98 8.59, 93.08 8.82 C93.18 9.05, 93.18 8.59, 93.08 8.82" stroke="#000000" stroke-width="1" fill="none"></path></g><g stroke-linecap="round" transform="translate(293.6513357358813 356.54472433022664) rotate(0 45.337657175698155 5.84480666555865)"><path d="M0 0 L90.68 0 L90.68 11.69 L0 11.69" stroke="none" stroke-width="0" fill="#fff"></path><path d="M0 0 C31.65 0, 63.3 0, 90.68 0 M0 0 C25.45 0, 50.89 0, 90.68 0 M90.68 0 C90.68 3.09, 90.68 6.19, 90.68 11.69 M90.68 0 C90.68 3.75, 90.68 7.49, 90.68 11.69 M90.68 11.69 C56.51 11.69, 22.33 11.69, 0 11.69 M90.68 11.69 C59.01 11.69, 27.34 11.69, 0 11.69 M0 11.69 C0 8.39, 0 5.09, 0 0 M0 11.69 C0 8.9, 0 6.12, 0 0" stroke="#ffff" stroke-width="4" fill="none"></path></g><g stroke-linecap="round"><g transform="translate(385.3168794030962 317.76040566767045) rotate(0 0.14950784935592765 26.797800730214135)"><path d="M0 0 C0.05 8.93, 0.25 44.66, 0.3 53.6 M0 0 C0.05 8.93, 0.25 44.66, 0.3 53.6" stroke="#000000" stroke-width="1" fill="none"></path></g></g><g stroke-linecap="round"><g transform="translate(292.5766740889435 318.1465518251368) rotate(0 -0.08314151715819662 27.017297897885754)"><path d="M0 0 C-0.03 9.01, -0.14 45.03, -0.17 54.03 M0 0 C-0.03 9.01, -0.14 45.03, -0.17 54.03" stroke="#000000" stroke-width="1" fill="none"></path></g></g><g stroke-linecap="round" transform="translate(10 75.77187455557385) rotate(0 96 17)"><path d="M-1.06 0.45 C43.98 0.55, 86.64 0.12, 192.52 -0.23 M0.63 0.08 C54.65 -0.71, 108.67 -1.06, 191.18 0.62 M193.25 -1.24 C192.36 7.46, 192.69 15.54, 191.26 34.91 M191.95 -0.04 C192.4 8.47, 192.42 17.9, 191.02 34.88 M193.18 33.73 C121.61 31.05, 52.69 33.44, -0.58 33.82 M192.11 33.85 C146.11 34.5, 100.29 34.46, 0.87 33.07 M1.68 32.56 C1.79 24.3, 0.2 17.25, 0.78 0.47 M0.26 34.5 C-0.25 21.55, -0.72 9.67, 0.99 0.26" stroke="#000000" stroke-width="1" fill="none"></path></g><g transform="translate(15 80.77187455557385) rotate(0 91 12)"><text x="91" y="17" font-family="Virgil, Segoe UI Emoji" font-size="20px" fill="#000000" text-anchor="middle" style="white-space: pre;" direction="ltr">softhsm-util</text></g><g stroke-linecap="round"><g transform="translate(109.94718435511572 110.77187455557385) rotate(0 42.64299443604989 57.693261754624544)"><path d="M-0.97 0.06 C13.11 19.09, 69.8 96.05, 84.15 115.22 M0.72 -0.96 C15.17 18.73, 72.32 96.87, 86.26 116.35" stroke="#e67700" stroke-width="1" fill="none"></path></g><g transform="translate(109.94718435511572 110.77187455557385) rotate(0 42.64299443604989 57.693261754624544)"><path d="M61.5 97.6 C67.1 104.11, 73.71 107.66, 86.68 114.65 M60.46 98.71 C66 103.45, 73.09 107.64, 85.47 116.99" stroke="#e67700" stroke-width="1" fill="none"></path></g><g transform="translate(109.94718435511572 110.77187455557385) rotate(0 42.64299443604989 57.693261754624544)"><path d="M78.12 85.56 C79.24 95.25, 81.28 102.12, 86.68 114.65 M77.08 86.67 C78.77 94.01, 82.1 100.92, 85.47 116.99" stroke="#e67700" stroke-width="1" fill="none"></path></g></g><g stroke-linecap="round"><g transform="translate(224.7167140476131 268.77187455557385) rotate(0 46.83378039370075 20.47708347368011)"><path d="M0.01 0.6 C16.06 7.26, 79.33 34.64, 95.11 41.09 M-1.44 -0.13 C14.55 6.7, 78.31 32.65, 94.17 39.34" stroke="#e67700" stroke-width="1" fill="none"></path></g><g transform="translate(224.7167140476131 268.77187455557385) rotate(0 46.83378039370075 20.47708347368011)"><path d="M65.19 38.06 C71.48 37.62, 74.57 38.16, 93.98 38.99 M63.69 37.68 C76.51 39.25, 87.79 38.53, 93.44 40.09" stroke="#e67700" stroke-width="1" fill="none"></path></g><g transform="translate(224.7167140476131 268.77187455557385) rotate(0 46.83378039370075 20.47708347368011)"><path d="M73.04 19.09 C77.91 22.5, 79.41 26.87, 93.98 38.99 M71.53 18.71 C81.1 27.72, 89.29 34.47, 93.44 40.09" stroke="#e67700" stroke-width="1" fill="none"></path></g></g><g stroke-linecap="round" transform="translate(142 24.771874555573845) rotate(0 96 17)"><path d="M-0.46 1.38 C59.11 1.89, 120.73 0.55, 191.75 1.34 M-0.82 -0.51 C55.24 -2.23, 109.43 -1.8, 191.37 0.33 M190.4 1.2 C193.76 5.64, 191.68 14.35, 190.41 34.14 M192.49 -0.13 C191.33 11.77, 192.96 22.7, 191.91 34.5 M193.76 35.2 C125.28 33.86, 55.06 37.68, 1.12 35.26 M192.06 34.94 C145.92 33.81, 98.32 33.96, 0.1 33.22 M1.43 33.64 C-1.57 24.75, 1.38 15.07, -0.27 -1.15 M0.52 33.7 C-0.01 21.6, -0.38 11.51, -0.74 0.57" stroke="#000000" stroke-width="1" fill="none"></path></g><g transform="translate(147 29.771874555573845) rotate(0 91 12)"><text x="91" y="17" font-family="Virgil, Segoe UI Emoji" font-size="20px" fill="#000000" text-anchor="middle" style="white-space: pre;" direction="ltr">pkcs11-tool</text></g><g stroke-linecap="round"><g transform="translate(246.18494605674573 59.771874555573845) rotate(0 -23.5343713760642 77.68694060184063)"><path d="M-0.16 -0.69 C-8.01 25.22, -38.31 130.01, -46.21 156.06 M-1.71 1.56 C-9.75 27.11, -39.67 129.16, -46.91 154.5" stroke="#e67700" stroke-width="1" fill="none"></path></g><g transform="translate(246.18494605674573 59.771874555573845) rotate(0 -23.5343713760642 77.68694060184063)"><path d="M-50.05 125.37 C-46.23 134.35, -46.22 146.4, -46.32 152.82 M-48.33 124.28 C-48.02 133.97, -48.49 142.85, -47.86 155.12" stroke="#e67700" stroke-width="1" fill="none"></path></g><g transform="translate(246.18494605674573 59.771874555573845) rotate(0 -23.5343713760642 77.68694060184063)"><path d="M-30.34 131.09 C-33.94 137.91, -41.31 147.8, -46.32 152.82 M-28.62 130 C-34.1 137.88, -40.33 145.08, -47.86 155.12" stroke="#e67700" stroke-width="1" fill="none"></path></g></g><g stroke-linecap="round" transform="translate(295.2068965517242 81.77187455557385) rotate(0 78 29)"><path d="M0.21 -1.53 C51.84 -1.51, 106.53 -0.95, 156.37 1.96 M0.6 0.15 C49.68 -0.25, 100.9 -0.96, 155.1 0.73 M154.07 1.2 C153.76 16.12, 154.8 32.63, 157.14 58.14 M155.04 -0.38 C155.56 19.81, 155.99 37.44, 156.44 57.69 M155.46 57.52 C123.56 58.28, 93.42 58.93, -1.08 56.93 M155.28 58.2 C99.72 58.49, 46.19 59.99, 0.41 58.46 M-0.6 58.37 C-0.15 37.24, 1.24 15.2, 0.98 1.62 M0.33 57.11 C0.59 39.21, 0.82 22.05, -0.06 0.31" stroke="#000000" stroke-width="1" fill="none"></path></g><g transform="translate(300.2068965517242 86.77187455557385) rotate(0 73 24)"><text x="73" y="17" font-family="Virgil, Segoe UI Emoji" font-size="20px" fill="#000000" text-anchor="middle" style="white-space: pre;" direction="ltr">fulcio </text><text x="73" y="41" font-family="Virgil, Segoe UI Emoji" font-size="20px" fill="#000000" text-anchor="middle" style="white-space: pre;" direction="ltr">createca</text></g><g stroke-linecap="round"><g transform="translate(350.6996456602958 143.89090299801225) rotate(0 -24.900502692301643 41.02609869696587)"><path d="M-0.74 -0.04 C-8.99 13.76, -42.1 69.52, -50.48 83.16 M1.07 -1.11 C-7.16 12.27, -42.11 67.24, -50.88 81.19" stroke="#5c940d" stroke-width="1" fill="none"></path></g><g transform="translate(350.6996456602958 143.89090299801225) rotate(0 -24.900502692301643 41.02609869696587)"><path d="M-44.55 53.61 C-45.32 59.11, -48.97 65.72, -52.74 80.63 M-45.1 52.63 C-46.87 58.46, -47.45 65.52, -50.97 80.24" stroke="#5c940d" stroke-width="1" fill="none"></path></g><g transform="translate(350.6996456602958 143.89090299801225) rotate(0 -24.900502692301643 41.02609869696587)"><path d="M-27.21 64.58 C-31.8 67.57, -39.24 71.78, -52.74 80.63 M-27.75 63.6 C-33.34 67.06, -37.73 71.71, -50.97 80.24" stroke="#5c940d" stroke-width="1" fill="none"></path></g></g><g stroke-linecap="round"><g transform="translate(351.5212216033474 148.77187455557385) rotate(0 -3.177001189479597 80.45522571254301)"><path d="M-0.57 0.13 C-1.85 27.06, -5.96 133.85, -7.09 160.7 M1.32 -0.85 C-0.1 26.29, -6.14 134.57, -7.68 161.76" stroke="#e67700" stroke-width="1" fill="none"></path></g><g transform="translate(351.5212216033474 148.77187455557385) rotate(0 -3.177001189479597 80.45522571254301)"><path d="M-16.13 134.17 C-15.06 143.71, -11.24 154.62, -7.11 161.02 M-15.98 133.79 C-14.43 142.51, -10.34 151.34, -8.11 162.03" stroke="#e67700" stroke-width="1" fill="none"></path></g><g transform="translate(351.5212216033474 148.77187455557385) rotate(0 -3.177001189479597 80.45522571254301)"><path d="M4.36 135.32 C-1.66 144.36, -4.93 154.87, -7.11 161.02 M4.51 134.94 C-0.24 143.12, -2.45 151.6, -8.11 162.03" stroke="#e67700" stroke-width="1" fill="none"></path></g></g><g stroke-linecap="round" transform="translate(417 351.77187455557385) rotate(0 78 17)"><path d="M1.23 1.79 C35.32 0.98, 74.85 0.64, 157.46 -1.56 M0.5 -0.53 C38.98 -0.69, 77.84 -0.81, 156.62 -0.3 M155 0.93 C155.26 10.52, 156.33 16.63, 155.15 33.19 M155.11 -0.52 C155.37 10.9, 155.42 19.61, 156.79 34.66 M154.3 35.84 C116.28 32.94, 77.35 34.5, -0.5 34.5 M155.51 33.78 C120.42 35.17, 84.59 35.29, 0.77 34.47 M-1.09 33.9 C-0.86 21.2, 1.26 8.25, 1.09 0.54 M-0.05 33.53 C1.29 25.84, -0.62 17.93, 0.93 -0.37" stroke="#000000" stroke-width="1" fill="none"></path></g><g transform="translate(422 356.77187455557385) rotate(0 73 12)"><text x="73" y="17" font-family="Virgil, Segoe UI Emoji" font-size="20px" fill="#000000" text-anchor="middle" style="white-space: pre;" direction="ltr">ct_server</text></g><g stroke-linecap="round"><g transform="translate(499.8780017972276 386.77187455557385) rotate(0 -1.2207521498561391 22.484044126048673)"><path d="M0.67 -0.72 C0.36 6.85, -1.5 38.21, -1.94 45.69 M-0.43 1.51 C-0.93 8.76, -2.69 36.89, -3.12 44.19" stroke="#e67700" stroke-width="4" fill="none"></path></g><g transform="translate(499.8780017972276 386.77187455557385) rotate(0 -1.2207521498561391 22.484044126048673)"><path d="M-10.65 22.13 C-5.55 28.3, -6.21 34.24, -4.34 45.7 M-10.17 22.14 C-7.4 30.47, -5.39 35.97, -2.47 44.28" stroke="#e67700" stroke-width="4" fill="none"></path></g><g transform="translate(499.8780017972276 386.77187455557385) rotate(0 -1.2207521498561391 22.484044126048673)"><path d="M4.55 23.05 C5.17 29.04, 0.04 34.7, -4.34 45.7 M5.03 23.07 C3.01 30.95, 0.24 36.16, -2.47 44.28" stroke="#e67700" stroke-width="4" fill="none"></path></g></g><g stroke-linecap="round" transform="translate(499 103.77187455557385) rotate(0 78 17)"><path d="M0.73 1.48 C50.87 2.93, 106.82 2.79, 157.55 1.58 M0.26 0.09 C55.43 0.25, 112.85 1.98, 155.23 0.62 M156.95 0.36 C155.53 14.01, 154.86 25.98, 157.57 33.67 M156.23 -0.43 C155.8 8.98, 155.5 16.86, 155.29 33.01 M157.48 33.07 C115.79 32.02, 73.07 35.01, -0.16 35.14 M156.42 34.34 C102.13 35.21, 48.39 33.87, 0.27 33.3 M-0.74 32.89 C0.23 20.28, 0.29 9.56, 0.72 -0.58 M-0.16 34.78 C-0.15 25.45, 0.15 16.72, -0.02 -0.49" stroke="#000000" stroke-width="1" fill="none"></path></g><g transform="translate(504 108.77187455557385) rotate(0 73 12)"><text x="73" y="17" font-family="Virgil, Segoe UI Emoji" font-size="20px" fill="#000000" text-anchor="middle" style="white-space: pre;" direction="ltr">dex</text></g><g stroke-linecap="round" transform="translate(392 196.77187455557385) rotate(0 78 17.5)"><path d="M0.83 -1.15 C34.28 -0.85, 70.74 0.93, 156.28 -1.46 M-0.28 -0.75 C45.77 0, 92.07 0.61, 156.12 0.9 M156.44 -2 C156.93 13.63, 155.28 25.6, 154.52 35.61 M156.14 -0.39 C156.51 11.82, 156.14 23.23, 156.76 35.65 M154.9 34.95 C110.6 32.43, 66.78 35.29, -0.09 35 M156 35.23 C93.87 36.17, 32.13 36.87, -0.99 35.15 M0.47 33.67 C-0.01 23.02, -0.07 14.12, -2 1.3 M-0.63 34.55 C0.07 22.61, -0.46 9.23, -0.94 -0.44" stroke="#000000" stroke-width="1" fill="none"></path></g><g transform="translate(397 201.77187455557385) rotate(0 73 12)"><text x="73" y="17" font-family="Virgil, Segoe UI Emoji" font-size="20px" fill="#000000" text-anchor="middle" style="white-space: pre;" direction="ltr">GitHub</text></g><g stroke-linecap="round"><g transform="translate(548.7943323237112 140.77187455557385) rotate(0 -23.046109928765986 24.354781724605708)"><path d="M-1.1 -1.09 C-8.81 7.18, -38.54 40.28, -46.24 48.52 M0.53 0.95 C-7.24 9.48, -38.52 41.74, -46.62 49.8" stroke="#5c940d" stroke-width="1" fill="none"></path></g><g transform="translate(548.7943323237112 140.77187455557385) rotate(0 -23.046109928765986 24.354781724605708)"><path d="M-35.99 24.31 C-38.97 30.64, -43.01 36.92, -48.57 51.41 M-34.36 21.65 C-37.4 29.6, -40.02 36.16, -46.95 49.17" stroke="#5c940d" stroke-width="1" fill="none"></path></g><g transform="translate(548.7943323237112 140.77187455557385) rotate(0 -23.046109928765986 24.354781724605708)"><path d="M-21.35 38.7 C-28.6 40.57, -37.04 42.53, -48.57 51.41 M-19.73 36.04 C-26.49 40.19, -32.96 42.98, -46.95 49.17" stroke="#5c940d" stroke-width="1" fill="none"></path></g></g><g stroke-linecap="round"><g transform="translate(556 269.76300589776554) rotate(0 -117.35634526448325 -6.831827116313974)"><path d="M-1.03 -0.61 C-40.18 -2.74, -195.48 -11.5, -234.61 -13.72 M0.64 1.69 C-38.67 -0.68, -196.35 -12.43, -235.35 -15.35" stroke="#5c940d" stroke-width="1" fill="none"></path></g><g transform="translate(556 269.76300589776554) rotate(0 -117.35634526448325 -6.831827116313974)"><path d="M-207.48 -22.84 C-214.41 -22.43, -224.1 -18.56, -235.21 -16.12 M-206.62 -22.78 C-216.39 -20.88, -227.36 -18.19, -235.58 -15.91" stroke="#5c940d" stroke-width="1" fill="none"></path></g><g transform="translate(556 269.76300589776554) rotate(0 -117.35634526448325 -6.831827116313974)"><path d="M-209.01 -2.38 C-215.28 -8.63, -224.47 -11.43, -235.21 -16.12 M-208.14 -2.32 C-217.35 -7.71, -227.78 -12.32, -235.58 -15.91" stroke="#5c940d" stroke-width="1" fill="none"></path></g></g><g stroke-linecap="round"><g transform="translate(570.9926621002426 318.77187455557385) rotate(0 -39.412633878200495 12.890980122797174)"><path d="M-0.44 -0.1 C-13.58 4.14, -66.36 21.41, -79.98 25.98 M1.54 -1.2 C-11.58 3.11, -66.79 21.99, -80.36 26.98" stroke="#5c940d" stroke-width="4" fill="none"></path></g><g transform="translate(570.9926621002426 318.77187455557385) rotate(0 -39.412633878200495 12.890980122797174)"><path d="M-57.36 9.74 C-63.61 9.94, -66.22 16.57, -81.76 27.75 M-57.62 8.17 C-66.49 16.14, -74.11 23.27, -80.69 26.64" stroke="#5c940d" stroke-width="4" fill="none"></path></g><g transform="translate(570.9926621002426 318.77187455557385) rotate(0 -39.412633878200495 12.890980122797174)"><path d="M-50.53 29.09 C-58.29 25.25, -62.32 27.86, -81.76 27.75 M-50.8 27.53 C-62.18 28.28, -72.37 28.12, -80.69 26.64" stroke="#5c940d" stroke-width="4" fill="none"></path></g></g><g stroke-linecap="round"><g transform="translate(756.1663735054185 74.77187455557387) rotate(0 7.07806058545998 161.09822681555528)"><path d="M0.75 -0.77 C2.81 52.81, 10.23 268, 12.2 321.62 M-0.32 1.44 C2.14 55.17, 12.5 269.58, 14.48 322.96" stroke="#e67700" stroke-width="2" fill="none"></path></g><g transform="translate(756.1663735054185 74.77187455557387) rotate(0 7.07806058545998 161.09822681555528)"><path d="M1.72 293.87 C5.68 302.25, 7.86 309.28, 15.13 322.59 M2.41 294.64 C5.58 302.23, 10.58 311.51, 13.81 323.37" stroke="#e67700" stroke-width="2" fill="none"></path></g><g transform="translate(756.1663735054185 74.77187455557387) rotate(0 7.07806058545998 161.09822681555528)"><path d="M22.22 292.97 C20.35 301.74, 16.71 309.03, 15.13 322.59 M22.91 293.75 C20.31 301.71, 19.53 311.24, 13.81 323.37" stroke="#e67700" stroke-width="2" fill="none"></path></g></g><g stroke-linecap="round"><g transform="translate(665.3042872643664 77.3575048122032) rotate(0 -18.89803643555706 11.94941919970196)"><path d="M0.39 -0.97 C-5.79 3.2, -31.08 20.49, -37.47 24.87 M-0.86 1.14 C-7.13 4.95, -31.87 19.27, -38.19 22.98" stroke="#5c940d" stroke-width="4" fill="none"></path></g><g transform="translate(665.3042872643664 77.3575048122032) rotate(0 -18.89803643555706 11.94941919970196)"><path d="M-25.38 6.38 C-26.92 10.27, -30.11 14.76, -37.1 24.83 M-24.27 5 C-28.85 11.43, -33.42 17.51, -39.07 22.01" stroke="#5c940d" stroke-width="4" fill="none"></path></g><g transform="translate(665.3042872643664 77.3575048122032) rotate(0 -18.89803643555706 11.94941919970196)"><path d="M-17.61 19.71 C-21.23 20.03, -26.52 20.93, -37.1 24.83 M-16.51 18.33 C-23.68 20.43, -30.79 22.15, -39.07 22.01" stroke="#5c940d" stroke-width="4" fill="none"></path></g></g><g stroke-linecap="round"><g transform="translate(731.1354803384102 81.77187455557385) rotate(0 -48.9134548218442 78.19902763972058)"><path d="M-0.19 0.1 C-16.42 26.37, -80.43 131.34, -96.39 157.3 M-1.75 -0.9 C-18.28 25.02, -81.79 129.09, -97.64 155.33" stroke="#e67700" stroke-width="4" fill="none"></path></g><g transform="translate(731.1354803384102 81.77187455557385) rotate(0 -48.9134548218442 78.19902763972058)"><path d="M-91.6 124.97 C-93.61 136.97, -98.34 148.01, -95.91 157.2 M-90.83 125.95 C-94.35 132.56, -94.56 140.54, -98.04 155.27" stroke="#e67700" stroke-width="4" fill="none"></path></g><g transform="translate(731.1354803384102 81.77187455557385) rotate(0 -48.9134548218442 78.19902763972058)"><path d="M-74.06 135.63 C-82.78 143.51, -94.26 150.44, -95.91 157.2 M-73.3 136.61 C-80.98 140.6, -85.43 146.02, -98.04 155.27" stroke="#e67700" stroke-width="4" fill="none"></path></g></g><g transform="translate(638 160.27187455557385) rotate(0 47 10.5)"><text x="0" y="15" font-family="Virgil, Segoe UI Emoji" font-size="16px" fill="#000000" text-anchor="start" style="white-space: pre;" direction="ltr">create cert</text></g><g transform="translate(477 152.27187455557385) rotate(0 63 10.5)"><text x="0" y="15" font-family="Virgil, Segoe UI Emoji" font-size="16px" fill="#000000" text-anchor="start" style="white-space: pre;" direction="ltr">OpenID Connect</text></g><g transform="translate(716 205.27187455557385) rotate(0 68 10.5)"><text x="0" y="15" font-family="Virgil, Segoe UI Emoji" font-size="16px" fill="#000000" text-anchor="start" style="white-space: pre;" direction="ltr">record metadata</text></g><g stroke-linecap="round"><g transform="translate(690 434.31631518590905) rotate(0 -39.64198156517 13.194101019887398)"><path d="M-0.28 -0.74 C-13.67 3.52, -66.75 21.31, -80.07 25.79 M1.78 1.49 C-11.81 5.89, -67.25 22.8, -81.06 27.13" stroke="#e67700" stroke-width="4" fill="none"></path></g><g transform="translate(690 434.31631518590905) rotate(0 -39.64198156517 13.194101019887398)"><path d="M-58.39 8.88 C-65.51 14.51, -72.68 20.79, -80.63 28.58 M-57.46 9.89 C-67.09 16.05, -74.92 22.54, -80.79 27.57" stroke="#e67700" stroke-width="4" fill="none"></path></g><g transform="translate(690 434.31631518590905) rotate(0 -39.64198156517 13.194101019887398)"><path d="M-52.33 28.49 C-61.46 27.74, -70.59 27.67, -80.63 28.58 M-51.41 29.5 C-63.5 28.07, -73.66 27.04, -80.79 27.57" stroke="#e67700" stroke-width="4" fill="none"></path></g></g><g transform="translate(322 332.27187455557385) rotate(0 18 21)"><text x="0" y="15" font-family="Virgil, Segoe UI Emoji" font-size="16px" fill="#000000" text-anchor="start" style="white-space: pre;" direction="ltr">local</text><text x="0" y="36" font-family="Virgil, Segoe UI Emoji" font-size="16px" fill="#000000" text-anchor="start" style="white-space: pre;" direction="ltr">disk</text></g><g stroke-linecap="round"><g transform="translate(989.9315105243618 76.77187455557385) rotate(0 -60.391338987428185 173.58854612294778)"><path d="M0.14 -0.66 C6.73 32.14, 41.04 142.24, 40.45 197.11 C39.86 251.99, 30.59 303.59, -3.41 328.59 C-37.41 353.6, -136.86 344.13, -163.55 347.16 M-1.25 1.61 C5.66 34.59, 43.28 144.03, 42.84 198.71 C42.4 253.39, 30.51 304.84, -3.9 329.7 C-38.31 354.55, -137.34 345.02, -163.62 347.84" stroke="#5c940d" stroke-width="4" fill="none"></path></g><g transform="translate(989.9315105243618 76.77187455557385) rotate(0 -60.391338987428185 173.58854612294778)"><path d="M-136.65 336.22 C-145.9 342.14, -157.34 344.23, -165 346.86 M-136.28 337.39 C-141.99 338.68, -146.47 341, -163.93 347.9" stroke="#5c940d" stroke-width="4" fill="none"></path></g><g transform="translate(989.9315105243618 76.77187455557385) rotate(0 -60.391338987428185 173.58854612294778)"><path d="M-136.41 356.74 C-145.81 354.93, -157.34 349.29, -165 346.86 M-136.04 357.91 C-141.83 355.04, -146.36 353.19, -163.93 347.9" stroke="#5c940d" stroke-width="4" fill="none"></path></g></g><g transform="translate(569 50.271874555573845) rotate(0 51.5 10.5)"><text x="0" y="15" font-family="Virgil, Segoe UI Emoji" font-size="16px" fill="#000000" text-anchor="start" style="white-space: pre;" direction="ltr">authenticate</text></g></svg>